<?xml version="1.0" encoding="UTF-8"?> <svg xmlns="http://www.w3.org/2000/svg" width="33" height="34" viewBox="0 0 33 34" fill="none"><g clip-path="url(#clip0_1404_676)"><path fill-rule="evenodd" clip-rule="evenodd" d="M0.96708 0.0585938H3.37717C3.37717 2.02248 1.86221 3.62016 0 3.62016V1.02567C0 0.491588 0.432994 0.0585938 0.96708 0.0585938ZM33.0096 1.02567V3.62016C31.1475 3.62016 29.6325 2.02248 29.6325 0.0585938H32.0425C32.5766 0.0585938 33.0096 0.491588 33.0096 1.02567ZM29.6325 20.4536H32.0425C32.5766 20.4536 33.0096 20.0206 33.0096 19.4865V16.892C31.1475 16.892 29.6325 18.4897 29.6325 20.4536ZM0 19.4865V16.892C1.86221 16.892 3.37717 18.4897 3.37711 20.4536H0.96708C0.432994 20.4536 0 20.0206 0 19.4865ZM16.5048 6.43681C14.3972 6.43681 12.6829 8.14983 12.6829 10.2561C12.6829 10.3193 12.6842 10.3831 12.6881 10.4463C13.3206 10.1066 14.6783 9.48634 16.5048 9.48634C18.3313 9.48634 19.689 10.1066 20.3216 10.4463C20.3254 10.3831 20.3267 10.3193 20.3267 10.2561C20.3267 8.14983 18.6124 6.43681 16.5048 6.43681ZM16.5048 15.5016C16.3366 15.5016 16.1729 15.5218 16.0162 15.5599C15.1606 15.7671 14.5129 16.5064 14.4429 17.4077C14.4387 17.4612 14.4366 17.5153 14.4366 17.5698L14.4366 17.5701C14.4366 17.6056 14.4375 17.641 14.4393 17.6761C14.4945 18.7691 15.3981 19.6383 16.5049 19.6383C17.6471 19.6383 18.5731 18.7123 18.5731 17.5701C18.5731 16.5939 17.8968 15.7757 16.9873 15.5584C16.8324 15.5212 16.6709 15.5016 16.5048 15.5016ZM27.6985 0.0585938H5.31121C5.31121 3.08878 2.92896 5.55419 0 5.55419V14.9581C2.92896 14.9581 5.31121 17.4235 5.31121 20.4537H8.95323C8.60959 19.5575 8.42134 18.5853 8.42134 17.5698C8.42134 15.2682 9.38842 13.1883 10.9377 11.7151C10.8132 11.2419 10.7488 10.7519 10.7488 10.2561C10.7488 7.08347 13.3309 4.50265 16.5048 4.50265C19.6788 4.50265 22.2609 7.08347 22.2609 10.2561C22.2609 10.7519 22.1964 11.2419 22.072 11.7151C23.6213 13.1883 24.5883 15.2682 24.5883 17.5698C24.5883 18.5853 24.4001 19.5575 24.0564 20.4537H27.6985C27.6985 17.4235 30.0807 14.9581 33.0097 14.9581V5.55419C30.0807 5.55419 27.6985 3.08878 27.6985 0.0585938ZM7.91974 11.2232H4.89987C4.36604 11.2232 3.93279 10.79 3.93279 10.2561C3.93279 9.72166 4.36604 9.28905 4.89987 9.28905H7.91974C8.45357 9.28905 8.88682 9.72166 8.88682 10.2561C8.88682 10.79 8.45357 11.2232 7.91974 11.2232ZM28.1098 11.2232H25.0899C24.5561 11.2232 24.1229 10.79 24.1229 10.2561C24.1229 9.72166 24.5561 9.28905 25.0899 9.28905H28.1098C28.6436 9.28905 29.0769 9.72166 29.0769 10.2561C29.0769 10.79 28.6436 11.2232 28.1098 11.2232ZM10.3554 17.5702C10.3554 14.1968 13.1313 11.4209 16.5048 11.4209C19.8782 11.4209 22.6541 14.1968 22.6541 17.5702C22.6541 20.9437 19.8782 23.7196 16.5048 23.7196C13.1313 23.7196 10.3554 20.9437 10.3554 17.5702ZM12.5023 17.5702C12.5023 19.7659 14.3091 21.5727 16.5048 21.5727C18.7005 21.5727 20.5072 19.7659 20.5072 17.5702C20.5072 15.3746 18.7004 13.5678 16.5048 13.5678C14.3091 13.5678 12.5023 15.3746 12.5023 17.5702ZM25.9662 30.2033C26.3411 30.3237 26.7537 30.2036 27.0055 29.9009C27.2574 29.5981 27.3001 29.1703 27.1132 28.8236L23.3551 21.8574C22.9824 22.4505 22.5357 22.9921 22.0263 23.4679C20.6055 24.7953 19.0837 25.2537 18.5216 25.3989C17.7882 25.5883 17.1051 25.6545 16.5053 25.6542L16.5049 25.6535L16.5046 25.6542C15.6112 25.6537 14.9027 25.5059 14.4883 25.3989C13.9262 25.2537 12.4044 24.7953 10.9836 23.4679C10.4742 22.9921 10.0274 22.4505 9.65479 21.8574L5.89671 28.8236C5.7091 29.1711 5.75165 29.5979 6.00438 29.9009C6.25647 30.2046 6.66845 30.3239 7.04367 30.2033L10.1648 29.1988L11.039 32.3593C11.1728 32.7812 11.5543 33.0672 11.9713 33.0684C12.3184 33.0695 12.6438 32.8732 12.8223 32.5604L16.5046 25.6542C16.5048 25.6542 16.5051 25.6542 16.5053 25.6542L20.1876 32.5604C20.3746 32.9075 20.7559 33.107 21.1476 33.0626C21.539 33.0183 21.866 32.7391 21.9709 32.3593L22.8451 29.1988L25.9662 30.2033Z" fill="url(#paint0_linear_1404_676)"></path><path fill-rule="evenodd" clip-rule="evenodd" d="M0.96708 0.0585938H3.37717C3.37717 2.02248 1.86221 3.62016 0 3.62016V1.02567C0 0.491588 0.432994 0.0585938 0.96708 0.0585938ZM33.0096 1.02567V3.62016C31.1475 3.62016 29.6325 2.02248 29.6325 0.0585938H32.0425C32.5766 0.0585938 33.0096 0.491588 33.0096 1.02567ZM29.6325 20.4536H32.0425C32.5766 20.4536 33.0096 20.0206 33.0096 19.4865V16.892C31.1475 16.892 29.6325 18.4897 29.6325 20.4536ZM0 19.4865V16.892C1.86221 16.892 3.37717 18.4897 3.37711 20.4536H0.96708C0.432994 20.4536 0 20.0206 0 19.4865ZM16.5048 6.43681C14.3972 6.43681 12.6829 8.14983 12.6829 10.2561C12.6829 10.3193 12.6842 10.3831 12.6881 10.4463C13.3206 10.1066 14.6783 9.48634 16.5048 9.48634C18.3313 9.48634 19.689 10.1066 20.3216 10.4463C20.3254 10.3831 20.3267 10.3193 20.3267 10.2561C20.3267 8.14983 18.6124 6.43681 16.5048 6.43681ZM16.5048 15.5016C16.3366 15.5016 16.1729 15.5218 16.0162 15.5599C15.1606 15.7671 14.5129 16.5064 14.4429 17.4077C14.4387 17.4612 14.4366 17.5153 14.4366 17.5698L14.4366 17.5701C14.4366 17.6056 14.4375 17.641 14.4393 17.6761C14.4945 18.7691 15.3981 19.6383 16.5049 19.6383C17.6471 19.6383 18.5731 18.7123 18.5731 17.5701C18.5731 16.5939 17.8968 15.7757 16.9873 15.5584C16.8324 15.5212 16.6709 15.5016 16.5048 15.5016ZM27.6985 0.0585938H5.31121C5.31121 3.08878 2.92896 5.55419 0 5.55419V14.9581C2.92896 14.9581 5.31121 17.4235 5.31121 20.4537H8.95323C8.60959 19.5575 8.42134 18.5853 8.42134 17.5698C8.42134 15.2682 9.38842 13.1883 10.9377 11.7151C10.8132 11.2419 10.7488 10.7519 10.7488 10.2561C10.7488 7.08347 13.3309 4.50265 16.5048 4.50265C19.6788 4.50265 22.2609 7.08347 22.2609 10.2561C22.2609 10.7519 22.1964 11.2419 22.072 11.7151C23.6213 13.1883 24.5883 15.2682 24.5883 17.5698C24.5883 18.5853 24.4001 19.5575 24.0564 20.4537H27.6985C27.6985 17.4235 30.0807 14.9581 33.0097 14.9581V5.55419C30.0807 5.55419 27.6985 3.08878 27.6985 0.0585938ZM7.91974 11.2232H4.89987C4.36604 11.2232 3.93279 10.79 3.93279 10.2561C3.93279 9.72166 4.36604 9.28905 4.89987 9.28905H7.91974C8.45357 9.28905 8.88682 9.72166 8.88682 10.2561C8.88682 10.79 8.45357 11.2232 7.91974 11.2232ZM28.1098 11.2232H25.0899C24.5561 11.2232 24.1229 10.79 24.1229 10.2561C24.1229 9.72166 24.5561 9.28905 25.0899 9.28905H28.1098C28.6436 9.28905 29.0769 9.72166 29.0769 10.2561C29.0769 10.79 28.6436 11.2232 28.1098 11.2232ZM10.3554 17.5702C10.3554 14.1968 13.1313 11.4209 16.5048 11.4209C19.8782 11.4209 22.6541 14.1968 22.6541 17.5702C22.6541 20.9437 19.8782 23.7196 16.5048 23.7196C13.1313 23.7196 10.3554 20.9437 10.3554 17.5702ZM12.5023 17.5702C12.5023 19.7659 14.3091 21.5727 16.5048 21.5727C18.7005 21.5727 20.5072 19.7659 20.5072 17.5702C20.5072 15.3746 18.7004 13.5678 16.5048 13.5678C14.3091 13.5678 12.5023 15.3746 12.5023 17.5702ZM25.9662 30.2033C26.3411 30.3237 26.7537 30.2036 27.0055 29.9009C27.2574 29.5981 27.3001 29.1703 27.1132 28.8236L23.3551 21.8574C22.9824 22.4505 22.5357 22.9921 22.0263 23.4679C20.6055 24.7953 19.0837 25.2537 18.5216 25.3989C17.7882 25.5883 17.1051 25.6545 16.5053 25.6542L16.5049 25.6535L16.5046 25.6542C15.6112 25.6537 14.9027 25.5059 14.4883 25.3989C13.9262 25.2537 12.4044 24.7953 10.9836 23.4679C10.4742 22.9921 10.0274 22.4505 9.65479 21.8574L5.89671 28.8236C5.7091 29.1711 5.75165 29.5979 6.00438 29.9009C6.25647 30.2046 6.66845 30.3239 7.04367 30.2033L10.1648 29.1988L11.039 32.3593C11.1728 32.7812 11.5543 33.0672 11.9713 33.0684C12.3184 33.0695 12.6438 32.8732 12.8223 32.5604L16.5046 25.6542C16.5048 25.6542 16.5051 25.6542 16.5053 25.6542L20.1876 32.5604C20.3746 32.9075 20.7559 33.107 21.1476 33.0626C21.539 33.0183 21.866 32.7391 21.9709 32.3593L22.8451 29.1988L25.9662 30.2033Z" fill="#005487"></path></g><defs><linearGradient id="paint0_linear_1404_676" x1="0" y1="16.5637" x2="33.0097" y2="16.5637" gradientUnits="userSpaceOnUse"><stop offset="0.21" stop-color="#005487"></stop><stop offset="1" stop-color="#0C7CC0"></stop></linearGradient><clipPath id="clip0_1404_676"><rect width="33.01" height="33.01" fill="white" transform="translate(0 0.0585938)"></rect></clipPath></defs></svg> 