<?xml version="1.0" encoding="UTF-8"?> <svg xmlns="http://www.w3.org/2000/svg" width="33" height="34" viewBox="0 0 33 34" fill="none"><g clip-path="url(#clip0_1404_731)"><path fill-rule="evenodd" clip-rule="evenodd" d="M21.5851 3.70021C22.992 4.72358 24.0965 6.16429 24.697 7.8781C26.0814 8.09718 27.143 9.2985 27.143 10.7435C27.143 12.1875 26.0833 13.3879 24.6997 13.6088C23.5214 17.0275 20.2375 19.4473 16.505 19.4473C12.8016 19.4473 9.49869 17.0544 8.31027 13.6088C6.92668 13.3879 5.86701 12.1875 5.86701 10.7435C5.86701 9.2985 6.92855 8.09718 8.31304 7.8781C9.52951 4.40637 12.8019 2.03965 16.505 2.03965H20.3734C20.9069 2.03965 21.3404 1.60613 21.3404 1.07256C21.3404 0.538016 21.773 0.105469 22.3075 0.105469C22.8421 0.105469 23.2746 0.538016 23.2746 1.07256C23.2746 2.23855 22.5793 3.23968 21.5851 3.70021ZM13.6037 7.84219C13.0696 7.84219 12.6366 8.27506 12.6366 8.80928C12.6366 9.34337 13.0696 9.77637 13.6037 9.77637C14.1378 9.77637 14.5708 9.34337 14.5708 8.80928C14.5708 8.27506 14.1378 7.84219 13.6037 7.84219ZM13.6037 12.6776C13.6037 14.2775 14.9052 15.5789 16.505 15.5789C18.1048 15.5789 19.4063 14.2775 19.4063 12.6776C19.4063 12.1431 18.9737 11.7105 18.4392 11.7105C17.9046 11.7105 17.4721 12.1431 17.4721 12.6776C17.4721 13.2112 17.0386 13.6447 16.505 13.6447C15.9714 13.6447 15.5379 13.2112 15.5379 12.6776C15.5379 12.1431 15.1054 11.7105 14.5708 11.7105C14.0363 11.7105 13.6037 12.1431 13.6037 12.6776ZM18.4392 8.80928C18.4392 9.34337 18.8722 9.77637 19.4063 9.77637C19.9404 9.77637 20.3734 9.34337 20.3734 8.80928C20.3734 8.27506 19.9404 7.84219 19.4063 7.84219C18.8722 7.84219 18.4392 8.27506 18.4392 8.80928ZM5.84412 26.4212C5.99144 28.2987 6.57415 30.1243 7.52331 31.693C8.30434 33.0114 10.0317 33.5412 11.5003 32.7082C12.9106 31.8676 13.3047 30.0436 12.5014 28.7454C12.1132 28.0711 11.8459 27.3325 11.7015 26.6034C14.7727 27.5441 18.2204 27.545 21.2935 26.6081C21.1566 27.357 20.8949 28.0748 20.5229 28.7208C19.7008 30.0525 20.0923 31.8643 21.5287 32.7186C23.0126 33.56 24.7632 32.9799 25.482 31.7005C26.4359 30.1243 27.0186 28.2987 27.1678 26.3947C27.1886 26.049 27.2075 25.7241 27.2075 25.3785C27.2075 22.5335 26.1887 19.7208 24.5222 17.636C22.3041 20.2055 19.4651 21.3812 16.505 21.3812C13.5861 21.3812 10.7267 20.227 8.48673 17.6374C6.82101 19.7221 5.80254 22.5342 5.80254 25.3785C5.80254 25.7241 5.82143 26.049 5.84412 26.4212ZM30.1088 23.4446C29.7119 23.4446 29.3461 23.5475 29.0012 23.6925L29.0219 23.8668C29.0818 24.3679 29.1417 24.8693 29.1417 25.3787C29.1417 25.7641 29.1218 26.1258 29.0982 26.5111C28.9245 28.739 28.2464 30.8677 27.1367 32.7018C27.0832 32.7972 27.0131 32.8803 26.943 32.9635C26.9011 33.0132 26.8591 33.063 26.8206 33.1155H30.1087C31.7086 33.1155 33.01 31.814 33.01 30.2142V26.3458C33.0101 24.746 31.7086 23.4446 30.1088 23.4446ZM6.20253 33.1155H2.90127C1.30145 33.1155 0 31.814 0 30.2142V26.3458C0 24.746 1.30145 23.4446 2.90127 23.4446C3.29816 23.4446 3.66379 23.5475 4.00872 23.6925L3.98769 23.8696C3.92803 24.3699 3.86836 24.8703 3.86836 25.3787C3.86836 25.7631 3.88822 26.1248 3.91562 26.5725C4.08653 28.7484 4.76182 30.8658 5.85921 32.6791C5.91993 32.7815 5.99636 32.8702 6.07292 32.959L6.07297 32.9591L6.073 32.9591C6.11713 33.0103 6.1613 33.0615 6.20253 33.1155ZM13.883 33.116H19.1315C18.2583 31.9571 17.979 30.4899 18.2789 29.1645C17.7123 29.2183 17.0764 29.2448 16.5041 29.2448C15.9327 29.2448 15.2988 29.2183 14.733 29.1655C14.8898 29.8766 14.886 30.6397 14.7056 31.3745C14.5477 32.0157 14.2659 32.6037 13.883 33.116Z" fill="url(#paint0_linear_1404_731)"></path><path fill-rule="evenodd" clip-rule="evenodd" d="M21.5851 3.70021C22.992 4.72358 24.0965 6.16429 24.697 7.8781C26.0814 8.09718 27.143 9.2985 27.143 10.7435C27.143 12.1875 26.0833 13.3879 24.6997 13.6088C23.5214 17.0275 20.2375 19.4473 16.505 19.4473C12.8016 19.4473 9.49869 17.0544 8.31027 13.6088C6.92668 13.3879 5.86701 12.1875 5.86701 10.7435C5.86701 9.2985 6.92855 8.09718 8.31304 7.8781C9.52951 4.40637 12.8019 2.03965 16.505 2.03965H20.3734C20.9069 2.03965 21.3404 1.60613 21.3404 1.07256C21.3404 0.538016 21.773 0.105469 22.3075 0.105469C22.8421 0.105469 23.2746 0.538016 23.2746 1.07256C23.2746 2.23855 22.5793 3.23968 21.5851 3.70021ZM13.6037 7.84219C13.0696 7.84219 12.6366 8.27506 12.6366 8.80928C12.6366 9.34337 13.0696 9.77637 13.6037 9.77637C14.1378 9.77637 14.5708 9.34337 14.5708 8.80928C14.5708 8.27506 14.1378 7.84219 13.6037 7.84219ZM13.6037 12.6776C13.6037 14.2775 14.9052 15.5789 16.505 15.5789C18.1048 15.5789 19.4063 14.2775 19.4063 12.6776C19.4063 12.1431 18.9737 11.7105 18.4392 11.7105C17.9046 11.7105 17.4721 12.1431 17.4721 12.6776C17.4721 13.2112 17.0386 13.6447 16.505 13.6447C15.9714 13.6447 15.5379 13.2112 15.5379 12.6776C15.5379 12.1431 15.1054 11.7105 14.5708 11.7105C14.0363 11.7105 13.6037 12.1431 13.6037 12.6776ZM18.4392 8.80928C18.4392 9.34337 18.8722 9.77637 19.4063 9.77637C19.9404 9.77637 20.3734 9.34337 20.3734 8.80928C20.3734 8.27506 19.9404 7.84219 19.4063 7.84219C18.8722 7.84219 18.4392 8.27506 18.4392 8.80928ZM5.84412 26.4212C5.99144 28.2987 6.57415 30.1243 7.52331 31.693C8.30434 33.0114 10.0317 33.5412 11.5003 32.7082C12.9106 31.8676 13.3047 30.0436 12.5014 28.7454C12.1132 28.0711 11.8459 27.3325 11.7015 26.6034C14.7727 27.5441 18.2204 27.545 21.2935 26.6081C21.1566 27.357 20.8949 28.0748 20.5229 28.7208C19.7008 30.0525 20.0923 31.8643 21.5287 32.7186C23.0126 33.56 24.7632 32.9799 25.482 31.7005C26.4359 30.1243 27.0186 28.2987 27.1678 26.3947C27.1886 26.049 27.2075 25.7241 27.2075 25.3785C27.2075 22.5335 26.1887 19.7208 24.5222 17.636C22.3041 20.2055 19.4651 21.3812 16.505 21.3812C13.5861 21.3812 10.7267 20.227 8.48673 17.6374C6.82101 19.7221 5.80254 22.5342 5.80254 25.3785C5.80254 25.7241 5.82143 26.049 5.84412 26.4212ZM30.1088 23.4446C29.7119 23.4446 29.3461 23.5475 29.0012 23.6925L29.0219 23.8668C29.0818 24.3679 29.1417 24.8693 29.1417 25.3787C29.1417 25.7641 29.1218 26.1258 29.0982 26.5111C28.9245 28.739 28.2464 30.8677 27.1367 32.7018C27.0832 32.7972 27.0131 32.8803 26.943 32.9635C26.9011 33.0132 26.8591 33.063 26.8206 33.1155H30.1087C31.7086 33.1155 33.01 31.814 33.01 30.2142V26.3458C33.0101 24.746 31.7086 23.4446 30.1088 23.4446ZM6.20253 33.1155H2.90127C1.30145 33.1155 0 31.814 0 30.2142V26.3458C0 24.746 1.30145 23.4446 2.90127 23.4446C3.29816 23.4446 3.66379 23.5475 4.00872 23.6925L3.98769 23.8696C3.92803 24.3699 3.86836 24.8703 3.86836 25.3787C3.86836 25.7631 3.88822 26.1248 3.91562 26.5725C4.08653 28.7484 4.76182 30.8658 5.85921 32.6791C5.91993 32.7815 5.99636 32.8702 6.07292 32.959L6.07297 32.9591L6.073 32.9591C6.11713 33.0103 6.1613 33.0615 6.20253 33.1155ZM13.883 33.116H19.1315C18.2583 31.9571 17.979 30.4899 18.2789 29.1645C17.7123 29.2183 17.0764 29.2448 16.5041 29.2448C15.9327 29.2448 15.2988 29.2183 14.733 29.1655C14.8898 29.8766 14.886 30.6397 14.7056 31.3745C14.5477 32.0157 14.2659 32.6037 13.883 33.116Z" fill="#005487"></path></g><defs><linearGradient id="paint0_linear_1404_731" x1="0" y1="16.6107" x2="33.01" y2="16.6107" gradientUnits="userSpaceOnUse"><stop offset="0.21" stop-color="#005487"></stop><stop offset="1" stop-color="#0C7CC0"></stop></linearGradient><clipPath id="clip0_1404_731"><rect width="33.01" height="33.01" fill="white" transform="translate(0 0.105469)"></rect></clipPath></defs></svg> 