<?xml version="1.0" encoding="UTF-8"?> <svg xmlns="http://www.w3.org/2000/svg" width="33" height="34" viewBox="0 0 33 34" fill="none"><g clip-path="url(#clip0_1404_781)"><path fill-rule="evenodd" clip-rule="evenodd" d="M32.321 16.9385V3.65409C32.321 3.52592 32.2392 3.412 32.1176 3.37106C31.9962 3.33018 31.8621 3.37151 31.7846 3.47363C30.1271 5.65945 29.23 8.32733 29.23 11.0704V15.9303C29.23 16.4876 29.6819 16.9395 30.2393 16.9395H30.66C30.2453 21.2233 29.9712 27.2145 29.9712 27.9161C29.9712 29.0212 30.6515 29.9172 31.4906 29.9172C32.3297 29.9172 33.0099 29.0212 33.0099 27.9161C33.0099 27.2145 32.7359 21.2222 32.321 16.9385ZM6.10047 16.0212C6.10047 9.98362 10.9949 5.08918 17.0325 5.08918C23.0701 5.08918 27.9646 9.98362 27.9646 16.0212C27.9646 22.0588 23.0701 26.9533 17.0325 26.9533C10.9949 26.9533 6.10047 22.0588 6.10047 16.0212ZM8.73753 16.0213C8.73753 20.5951 12.4586 24.3162 17.0325 24.3162C21.6063 24.3162 25.3274 20.5951 25.3274 16.0213C25.3274 11.4475 21.6063 7.72637 17.0325 7.72637C12.4586 7.72637 8.73753 11.4475 8.73753 16.0213ZM10.9609 16.0213C10.9609 12.6735 13.6845 9.94981 17.0323 9.94981C20.3802 9.94981 23.1038 12.6735 23.1038 16.0213C23.1038 19.3691 20.3801 22.0927 17.0323 22.0927C13.6845 22.0927 10.9609 19.3691 10.9609 16.0213ZM5.81389 11.8168C5.81389 12.8717 5.25188 13.7952 4.41103 14.3045C3.86404 14.6359 3.55863 15.2561 3.62923 15.8917C4.10388 20.17 4.42631 27.1547 4.42631 27.9155C4.42631 29.0206 3.74605 29.9166 2.90694 29.9166C2.06783 29.9166 1.38758 29.0207 1.38758 27.9155C1.38758 27.1547 1.70994 20.17 2.18466 15.8917C2.25519 15.2558 1.9501 14.6361 1.40286 14.3046C0.561944 13.7952 0 12.8718 0 11.8169L0.416687 5.00714C0.432547 4.74757 0.647692 4.54519 0.907775 4.54519C1.18888 4.54519 1.41311 4.78071 1.39919 5.06162L1.12834 10.523C1.12834 10.8299 1.3772 11.0788 1.68415 11.0788C1.99104 11.0788 2.23997 10.83 2.23997 10.523L2.3753 5.06387C2.38252 4.77542 2.61836 4.54526 2.90701 4.54526C3.19565 4.54526 3.43156 4.77536 3.43871 5.06387L3.57404 10.523C3.57404 10.8299 3.82291 11.0788 4.12986 11.0788C4.43675 11.0788 4.68568 10.83 4.68568 10.523L4.41483 5.06162C4.40084 4.78084 4.62495 4.54519 4.90624 4.54519C5.16632 4.54519 5.38147 4.74757 5.39739 5.00714L5.81389 11.8168Z" fill="url(#paint0_linear_1404_781)"></path><path fill-rule="evenodd" clip-rule="evenodd" d="M32.321 16.9385V3.65409C32.321 3.52592 32.2392 3.412 32.1176 3.37106C31.9962 3.33018 31.8621 3.37151 31.7846 3.47363C30.1271 5.65945 29.23 8.32733 29.23 11.0704V15.9303C29.23 16.4876 29.6819 16.9395 30.2393 16.9395H30.66C30.2453 21.2233 29.9712 27.2145 29.9712 27.9161C29.9712 29.0212 30.6515 29.9172 31.4906 29.9172C32.3297 29.9172 33.0099 29.0212 33.0099 27.9161C33.0099 27.2145 32.7359 21.2222 32.321 16.9385ZM6.10047 16.0212C6.10047 9.98362 10.9949 5.08918 17.0325 5.08918C23.0701 5.08918 27.9646 9.98362 27.9646 16.0212C27.9646 22.0588 23.0701 26.9533 17.0325 26.9533C10.9949 26.9533 6.10047 22.0588 6.10047 16.0212ZM8.73753 16.0213C8.73753 20.5951 12.4586 24.3162 17.0325 24.3162C21.6063 24.3162 25.3274 20.5951 25.3274 16.0213C25.3274 11.4475 21.6063 7.72637 17.0325 7.72637C12.4586 7.72637 8.73753 11.4475 8.73753 16.0213ZM10.9609 16.0213C10.9609 12.6735 13.6845 9.94981 17.0323 9.94981C20.3802 9.94981 23.1038 12.6735 23.1038 16.0213C23.1038 19.3691 20.3801 22.0927 17.0323 22.0927C13.6845 22.0927 10.9609 19.3691 10.9609 16.0213ZM5.81389 11.8168C5.81389 12.8717 5.25188 13.7952 4.41103 14.3045C3.86404 14.6359 3.55863 15.2561 3.62923 15.8917C4.10388 20.17 4.42631 27.1547 4.42631 27.9155C4.42631 29.0206 3.74605 29.9166 2.90694 29.9166C2.06783 29.9166 1.38758 29.0207 1.38758 27.9155C1.38758 27.1547 1.70994 20.17 2.18466 15.8917C2.25519 15.2558 1.9501 14.6361 1.40286 14.3046C0.561944 13.7952 0 12.8718 0 11.8169L0.416687 5.00714C0.432547 4.74757 0.647692 4.54519 0.907775 4.54519C1.18888 4.54519 1.41311 4.78071 1.39919 5.06162L1.12834 10.523C1.12834 10.8299 1.3772 11.0788 1.68415 11.0788C1.99104 11.0788 2.23997 10.83 2.23997 10.523L2.3753 5.06387C2.38252 4.77542 2.61836 4.54526 2.90701 4.54526C3.19565 4.54526 3.43156 4.77536 3.43871 5.06387L3.57404 10.523C3.57404 10.8299 3.82291 11.0788 4.12986 11.0788C4.43675 11.0788 4.68568 10.83 4.68568 10.523L4.41483 5.06162C4.40084 4.78084 4.62495 4.54519 4.90624 4.54519C5.16632 4.54519 5.38147 4.74757 5.39739 5.00714L5.81389 11.8168Z" fill="#005487"></path></g><defs><linearGradient id="paint0_linear_1404_781" x1="0" y1="16.6363" x2="33.0099" y2="16.6363" gradientUnits="userSpaceOnUse"><stop offset="0.21" stop-color="#005487"></stop><stop offset="1" stop-color="#0C7CC0"></stop></linearGradient><clipPath id="clip0_1404_781"><rect width="33.01" height="33.01" fill="white" transform="translate(0 0.128906)"></rect></clipPath></defs></svg> 