<?xml version="1.0" encoding="UTF-8"?> <svg xmlns="http://www.w3.org/2000/svg" width="33" height="34" viewBox="0 0 33 34" fill="none"><g clip-path="url(#clip0_1404_694)"><path fill-rule="evenodd" clip-rule="evenodd" d="M28.0412 5.44273C27.7473 4.40466 26.7968 3.68359 25.7145 3.68359H0.644727C0.288644 3.68359 0 3.97224 0 4.32832V6.75288H28.2524L28.0412 5.44273ZM2.6593 29.4934C4.128 29.4934 5.31861 28.3028 5.31861 26.8341C5.31861 25.3654 4.128 24.1748 2.6593 24.1748C1.19061 24.1748 0 25.3654 0 26.8341C0 28.3028 1.19061 29.4934 2.6593 29.4934ZM14.045 25.5141H7.06001C6.15939 22.5011 2.55215 21.2724 0 23.0878V20.4827H7.12706C8.34154 20.4827 9.52938 20.9764 10.386 21.8373L14.045 25.5141ZM26.2719 29.4934C27.7406 29.4934 28.9312 28.3028 28.9312 26.8341C28.9312 25.3654 27.7406 24.1748 26.2719 24.1748C24.8032 24.1748 23.6126 25.3654 23.6126 26.8341C23.6126 28.3028 24.8032 29.4934 26.2719 29.4934ZM16.7737 25.5139L11.757 20.4728C10.5399 19.2498 8.85235 18.5484 7.12706 18.5484H0V16.018H32.5271C32.7934 16.018 33.01 16.2346 33.01 16.5009V25.031C33.01 25.2973 32.7934 25.5139 32.5271 25.5139H30.6727C30.0956 23.5835 28.3134 22.2399 26.272 22.2399C24.2122 22.2399 22.4424 23.603 21.8712 25.5139H16.7737ZM0 8.68728H5.00508V14.0845H0V8.68728ZM11.9373 8.68728H6.93937V14.0845H11.9373V8.68728ZM13.875 8.68728H18.8729V14.0845H13.875V8.68728ZM29.4342 14.0845H20.807V8.68728H28.5642L29.4342 14.0845Z" fill="url(#paint0_linear_1404_694)"></path><path fill-rule="evenodd" clip-rule="evenodd" d="M28.0412 5.44273C27.7473 4.40466 26.7968 3.68359 25.7145 3.68359H0.644727C0.288644 3.68359 0 3.97224 0 4.32832V6.75288H28.2524L28.0412 5.44273ZM2.6593 29.4934C4.128 29.4934 5.31861 28.3028 5.31861 26.8341C5.31861 25.3654 4.128 24.1748 2.6593 24.1748C1.19061 24.1748 0 25.3654 0 26.8341C0 28.3028 1.19061 29.4934 2.6593 29.4934ZM14.045 25.5141H7.06001C6.15939 22.5011 2.55215 21.2724 0 23.0878V20.4827H7.12706C8.34154 20.4827 9.52938 20.9764 10.386 21.8373L14.045 25.5141ZM26.2719 29.4934C27.7406 29.4934 28.9312 28.3028 28.9312 26.8341C28.9312 25.3654 27.7406 24.1748 26.2719 24.1748C24.8032 24.1748 23.6126 25.3654 23.6126 26.8341C23.6126 28.3028 24.8032 29.4934 26.2719 29.4934ZM16.7737 25.5139L11.757 20.4728C10.5399 19.2498 8.85235 18.5484 7.12706 18.5484H0V16.018H32.5271C32.7934 16.018 33.01 16.2346 33.01 16.5009V25.031C33.01 25.2973 32.7934 25.5139 32.5271 25.5139H30.6727C30.0956 23.5835 28.3134 22.2399 26.272 22.2399C24.2122 22.2399 22.4424 23.603 21.8712 25.5139H16.7737ZM0 8.68728H5.00508V14.0845H0V8.68728ZM11.9373 8.68728H6.93937V14.0845H11.9373V8.68728ZM13.875 8.68728H18.8729V14.0845H13.875V8.68728ZM29.4342 14.0845H20.807V8.68728H28.5642L29.4342 14.0845Z" fill="#005487"></path></g><defs><linearGradient id="paint0_linear_1404_694" x1="0" y1="16.5885" x2="33.01" y2="16.5885" gradientUnits="userSpaceOnUse"><stop offset="0.21" stop-color="#005487"></stop><stop offset="1" stop-color="#0C7CC0"></stop></linearGradient><clipPath id="clip0_1404_694"><rect width="33.01" height="33.01" fill="white" transform="translate(0 0.0820312)"></rect></clipPath></defs></svg> 