<?xml version="1.0" encoding="UTF-8"?> <svg xmlns="http://www.w3.org/2000/svg" width="33" height="34" viewBox="0 0 33 34" fill="none"><g clip-path="url(#clip0_1404_806)"><path fill-rule="evenodd" clip-rule="evenodd" d="M18.7258 1.60675C18.5684 1.72889 18.417 1.86036 18.274 2.0034L16.4405 3.8371L14.657 2.05327L17.044 0.85977C17.4159 0.673907 17.866 0.746691 18.1602 1.0411L18.7258 1.60675ZM28.262 14.2503C29.351 15.341 29.3507 17.1148 28.2605 18.2048L21.6968 24.7687C20.5696 25.8957 19.0708 26.5167 17.4767 26.5167H15.8054L9.87341 32.4485C9.49564 32.826 8.8834 32.8262 8.50563 32.4485L0.218874 24.1617C-0.158896 23.7839 -0.158896 23.1717 0.218874 22.7939L3.34656 19.666L4.28418 20.6036C5.04098 21.3607 6.04736 21.7775 7.1177 21.7775C8.18805 21.7775 9.19443 21.3604 9.95123 20.6039C10.4761 20.0788 10.8372 19.4335 11.0092 18.7304C11.7126 18.5581 12.3576 18.1972 12.8827 17.6721C13.4076 17.1473 13.7687 16.5021 13.9407 15.7989C14.6441 15.6266 15.2891 15.2657 15.8142 14.7406C16.3499 14.2052 16.7015 13.5544 16.87 12.8679C17.5741 12.6959 18.2201 12.3348 18.746 11.8091C20.3082 10.2467 20.3082 7.70456 18.7457 6.1421L17.8081 5.20448L19.6418 3.37103C20.7325 2.28029 22.507 2.28029 23.5978 3.37103L23.5985 3.37179C23.5988 3.37179 23.5988 3.37204 23.599 3.37204C24.5835 4.35676 24.5208 5.62833 24.2236 6.3801C24.5669 6.51886 24.8819 6.72689 25.1517 6.99662L25.1534 6.99838C26.1374 7.98259 26.0744 9.25417 25.7773 10.0054C26.1178 10.1434 26.4306 10.3489 26.6988 10.6154L26.7036 10.6202L26.7066 10.6232C27.691 11.6079 27.6283 12.8792 27.3312 13.631C27.6739 13.7698 27.9887 13.9773 28.2582 14.2465L28.262 14.2503ZM29.5345 19.6664L32.6622 22.7944C33.04 23.1719 33.04 23.7844 32.6622 24.1621L24.3752 32.4489C23.9977 32.8267 23.3852 32.8267 23.0077 32.4489L18.8852 28.3264C20.4598 28.0446 21.9094 27.2916 23.0644 26.1366L29.5345 19.6664ZM5.65208 19.2362C6.46152 20.0459 7.77414 20.0459 8.58357 19.2362C9.39326 18.4267 9.39326 17.1144 8.58357 16.3047C9.39326 17.1144 10.7056 17.1144 11.5153 16.3047C12.3248 15.4952 12.3248 14.1826 11.5153 13.3732C12.3248 14.1826 13.6374 14.1826 14.4468 13.3732C15.2562 12.5637 15.2562 11.2511 14.4468 10.4417C15.2562 11.2511 16.5689 11.2511 17.3783 10.4417C18.188 9.632 18.188 8.31963 17.3783 7.50994L13.245 3.37664C12.4356 2.5672 11.1229 2.5672 10.3135 3.37664C9.50407 4.18607 9.50407 5.4987 10.3135 6.30813L10.8313 6.82618C10.0219 6.01649 8.70925 6.01649 7.89981 6.82618C7.09038 7.63561 7.09038 8.94824 7.89981 9.75767L8.93566 10.7935C8.12622 9.98408 6.8136 9.98408 6.00416 10.7935C5.19448 11.603 5.19448 12.9156 6.00416 13.725L7.04001 14.7611C6.23032 13.9514 4.91795 13.9514 4.10826 14.7611C3.29883 15.5705 3.29883 16.8829 4.10826 17.6926L5.65208 19.2362Z" fill="url(#paint0_linear_1404_806)"></path><path fill-rule="evenodd" clip-rule="evenodd" d="M18.7258 1.60675C18.5684 1.72889 18.417 1.86036 18.274 2.0034L16.4405 3.8371L14.657 2.05327L17.044 0.85977C17.4159 0.673907 17.866 0.746691 18.1602 1.0411L18.7258 1.60675ZM28.262 14.2503C29.351 15.341 29.3507 17.1148 28.2605 18.2048L21.6968 24.7687C20.5696 25.8957 19.0708 26.5167 17.4767 26.5167H15.8054L9.87341 32.4485C9.49564 32.826 8.8834 32.8262 8.50563 32.4485L0.218874 24.1617C-0.158896 23.7839 -0.158896 23.1717 0.218874 22.7939L3.34656 19.666L4.28418 20.6036C5.04098 21.3607 6.04736 21.7775 7.1177 21.7775C8.18805 21.7775 9.19443 21.3604 9.95123 20.6039C10.4761 20.0788 10.8372 19.4335 11.0092 18.7304C11.7126 18.5581 12.3576 18.1972 12.8827 17.6721C13.4076 17.1473 13.7687 16.5021 13.9407 15.7989C14.6441 15.6266 15.2891 15.2657 15.8142 14.7406C16.3499 14.2052 16.7015 13.5544 16.87 12.8679C17.5741 12.6959 18.2201 12.3348 18.746 11.8091C20.3082 10.2467 20.3082 7.70456 18.7457 6.1421L17.8081 5.20448L19.6418 3.37103C20.7325 2.28029 22.507 2.28029 23.5978 3.37103L23.5985 3.37179C23.5988 3.37179 23.5988 3.37204 23.599 3.37204C24.5835 4.35676 24.5208 5.62833 24.2236 6.3801C24.5669 6.51886 24.8819 6.72689 25.1517 6.99662L25.1534 6.99838C26.1374 7.98259 26.0744 9.25417 25.7773 10.0054C26.1178 10.1434 26.4306 10.3489 26.6988 10.6154L26.7036 10.6202L26.7066 10.6232C27.691 11.6079 27.6283 12.8792 27.3312 13.631C27.6739 13.7698 27.9887 13.9773 28.2582 14.2465L28.262 14.2503ZM29.5345 19.6664L32.6622 22.7944C33.04 23.1719 33.04 23.7844 32.6622 24.1621L24.3752 32.4489C23.9977 32.8267 23.3852 32.8267 23.0077 32.4489L18.8852 28.3264C20.4598 28.0446 21.9094 27.2916 23.0644 26.1366L29.5345 19.6664ZM5.65208 19.2362C6.46152 20.0459 7.77414 20.0459 8.58357 19.2362C9.39326 18.4267 9.39326 17.1144 8.58357 16.3047C9.39326 17.1144 10.7056 17.1144 11.5153 16.3047C12.3248 15.4952 12.3248 14.1826 11.5153 13.3732C12.3248 14.1826 13.6374 14.1826 14.4468 13.3732C15.2562 12.5637 15.2562 11.2511 14.4468 10.4417C15.2562 11.2511 16.5689 11.2511 17.3783 10.4417C18.188 9.632 18.188 8.31963 17.3783 7.50994L13.245 3.37664C12.4356 2.5672 11.1229 2.5672 10.3135 3.37664C9.50407 4.18607 9.50407 5.4987 10.3135 6.30813L10.8313 6.82618C10.0219 6.01649 8.70925 6.01649 7.89981 6.82618C7.09038 7.63561 7.09038 8.94824 7.89981 9.75767L8.93566 10.7935C8.12622 9.98408 6.8136 9.98408 6.00416 10.7935C5.19448 11.603 5.19448 12.9156 6.00416 13.725L7.04001 14.7611C6.23032 13.9514 4.91795 13.9514 4.10826 14.7611C3.29883 15.5705 3.29883 16.8829 4.10826 17.6926L5.65208 19.2362Z" fill="#005487"></path></g><defs><linearGradient id="paint0_linear_1404_806" x1="-0.0644531" y1="16.745" x2="32.9456" y2="16.745" gradientUnits="userSpaceOnUse"><stop offset="0.21" stop-color="#005487"></stop><stop offset="1" stop-color="#0C7CC0"></stop></linearGradient><clipPath id="clip0_1404_806"><rect width="33.01" height="33.01" fill="white" transform="translate(0 0.175781)"></rect></clipPath></defs></svg> 