<?xml version="1.0" encoding="UTF-8"?> <svg xmlns="http://www.w3.org/2000/svg" width="33" height="34" viewBox="0 0 33 34" fill="none"><g clip-path="url(#clip0_1404_682)"><path fill-rule="evenodd" clip-rule="evenodd" d="M0 12.1009L16.505 3.88281L33.01 12.1009L32.1479 13.8323L16.505 6.04354L0.862149 13.8323L0 12.1009ZM16.5051 8.20449L3.86786 14.4968V29.2702H29.1423V14.4968L16.5051 8.20449ZM20.3736 22.5004C19.6311 22.5004 18.9531 22.2197 18.4393 21.7593C17.9256 22.2198 17.2476 22.5004 16.5051 22.5004C14.9052 22.5004 13.6036 21.1989 13.6036 19.5991C13.6036 17.9993 14.9053 16.6977 16.5051 16.6977C18.1049 16.6977 19.4065 17.9993 19.4065 19.5991C19.4065 20.1323 19.8403 20.5662 20.3736 20.5662C20.9068 20.5662 21.3407 20.1323 21.3407 19.5991C21.3407 16.9327 19.1714 14.7635 16.505 14.7635C13.8386 14.7635 11.6693 16.9327 11.6693 19.5991C11.6693 22.2654 13.8386 24.4346 16.505 24.4346C17.3555 24.4346 18.1914 24.211 18.9225 23.7881L19.8912 25.4623C18.8661 26.0554 17.6952 26.3689 16.505 26.3689C12.7721 26.3689 9.73507 23.332 9.73507 19.5991C9.73507 15.8663 12.7721 12.8294 16.505 12.8294C20.2379 12.8294 23.2749 15.8663 23.2749 19.5991C23.275 21.1989 21.9734 22.5004 20.3736 22.5004ZM17.4812 19.6213C17.494 19.0872 17.0714 18.6438 16.5373 18.631C16.0032 18.6182 15.5598 19.0407 15.547 19.5749C15.5342 20.109 15.9568 20.5523 16.4909 20.5652C17.025 20.578 17.4684 20.1554 17.4812 19.6213Z" fill="url(#paint0_linear_1404_682)"></path><path fill-rule="evenodd" clip-rule="evenodd" d="M0 12.1009L16.505 3.88281L33.01 12.1009L32.1479 13.8323L16.505 6.04354L0.862149 13.8323L0 12.1009ZM16.5051 8.20449L3.86786 14.4968V29.2702H29.1423V14.4968L16.5051 8.20449ZM20.3736 22.5004C19.6311 22.5004 18.9531 22.2197 18.4393 21.7593C17.9256 22.2198 17.2476 22.5004 16.5051 22.5004C14.9052 22.5004 13.6036 21.1989 13.6036 19.5991C13.6036 17.9993 14.9053 16.6977 16.5051 16.6977C18.1049 16.6977 19.4065 17.9993 19.4065 19.5991C19.4065 20.1323 19.8403 20.5662 20.3736 20.5662C20.9068 20.5662 21.3407 20.1323 21.3407 19.5991C21.3407 16.9327 19.1714 14.7635 16.505 14.7635C13.8386 14.7635 11.6693 16.9327 11.6693 19.5991C11.6693 22.2654 13.8386 24.4346 16.505 24.4346C17.3555 24.4346 18.1914 24.211 18.9225 23.7881L19.8912 25.4623C18.8661 26.0554 17.6952 26.3689 16.505 26.3689C12.7721 26.3689 9.73507 23.332 9.73507 19.5991C9.73507 15.8663 12.7721 12.8294 16.505 12.8294C20.2379 12.8294 23.2749 15.8663 23.2749 19.5991C23.275 21.1989 21.9734 22.5004 20.3736 22.5004ZM17.4812 19.6213C17.494 19.0872 17.0714 18.6438 16.5373 18.631C16.0032 18.6182 15.5598 19.0407 15.547 19.5749C15.5342 20.109 15.9568 20.5523 16.4909 20.5652C17.025 20.578 17.4684 20.1554 17.4812 19.6213Z" fill="#005487"></path></g><defs><linearGradient id="paint0_linear_1404_682" x1="0" y1="16.5765" x2="33.01" y2="16.5765" gradientUnits="userSpaceOnUse"><stop offset="0.21" stop-color="#005487"></stop><stop offset="1" stop-color="#0C7CC0"></stop></linearGradient><clipPath id="clip0_1404_682"><rect width="33.01" height="33.01" fill="white" transform="translate(0 0.0703125)"></rect></clipPath></defs></svg> 