<?xml version="1.0" encoding="UTF-8"?> <svg xmlns="http://www.w3.org/2000/svg" width="33" height="34" viewBox="0 0 33 34" fill="none"><g clip-path="url(#clip0_1404_811)"><path fill-rule="evenodd" clip-rule="evenodd" d="M29.0772 2.12168H25.2088V0.1875H23.2746V2.12168H21.3404V0.1875H19.4063V2.12168H9.73537V0.1875H7.80119V2.12168H5.86701V0.1875H3.93283V2.12168H0V7.98869H29.0772V2.12168ZM25.2088 17.6596C20.936 17.6596 17.4721 21.1235 17.4721 25.3963C17.4721 29.6691 20.936 33.1975 25.2088 33.1975C29.4816 33.1975 33.01 29.6691 33.01 25.3963C33.01 21.1235 29.4816 17.6596 25.2088 17.6596ZM25.2088 24.4292C26.8085 24.4292 28.1101 25.7308 28.1101 27.3305C28.1101 28.5897 27.2991 29.653 26.1759 30.0537V32.2304H24.2417V30.0537C23.1185 29.653 22.3075 28.5897 22.3075 27.3305H24.2417C24.2417 27.8641 24.6751 28.2976 25.2088 28.2976C25.7425 28.2976 26.1759 27.8641 26.1759 27.3305C26.1759 26.7968 25.7425 26.3634 25.2088 26.3634C23.6091 26.3634 22.3075 25.0619 22.3075 23.4621C22.3075 22.2029 23.1185 21.1396 24.2417 20.7389V18.6267H26.1759V20.7389C27.2991 21.1396 28.1101 22.2029 28.1101 23.4621H26.1759C26.1759 22.9285 25.7425 22.495 25.2088 22.495C24.6751 22.495 24.2417 22.9285 24.2417 23.4621C24.2417 23.9958 24.6751 24.4292 25.2088 24.4292ZM25.2088 15.7254C19.8767 15.7254 15.5379 20.0642 15.5379 25.3963C15.5379 26.7732 15.8366 28.078 16.3577 29.2647H0V9.92287H29.0772V16.5452C27.8905 16.0241 26.5857 15.7254 25.2088 15.7254ZM25.2088 13.7912V11.857H21.3404V13.7912H25.2088ZM19.4063 11.857H15.5379V13.7912H19.4063V11.857ZM19.4063 15.7254H15.5379V17.6596H19.4063V15.7254ZM3.93283 21.5279H7.80119V19.5938H3.93283V21.5279ZM3.93283 17.6596H7.80119V15.7254H3.93283V17.6596ZM3.93283 13.7912H7.80119V11.857H3.93283V13.7912ZM9.73537 21.5279H13.6037V19.5938H9.73537V21.5279ZM9.73537 17.6596H13.6037V15.7254H9.73537V17.6596ZM9.73537 13.7912H13.6037V11.857H9.73537V13.7912Z" fill="url(#paint0_linear_1404_811)"></path><path fill-rule="evenodd" clip-rule="evenodd" d="M29.0772 2.12168H25.2088V0.1875H23.2746V2.12168H21.3404V0.1875H19.4063V2.12168H9.73537V0.1875H7.80119V2.12168H5.86701V0.1875H3.93283V2.12168H0V7.98869H29.0772V2.12168ZM25.2088 17.6596C20.936 17.6596 17.4721 21.1235 17.4721 25.3963C17.4721 29.6691 20.936 33.1975 25.2088 33.1975C29.4816 33.1975 33.01 29.6691 33.01 25.3963C33.01 21.1235 29.4816 17.6596 25.2088 17.6596ZM25.2088 24.4292C26.8085 24.4292 28.1101 25.7308 28.1101 27.3305C28.1101 28.5897 27.2991 29.653 26.1759 30.0537V32.2304H24.2417V30.0537C23.1185 29.653 22.3075 28.5897 22.3075 27.3305H24.2417C24.2417 27.8641 24.6751 28.2976 25.2088 28.2976C25.7425 28.2976 26.1759 27.8641 26.1759 27.3305C26.1759 26.7968 25.7425 26.3634 25.2088 26.3634C23.6091 26.3634 22.3075 25.0619 22.3075 23.4621C22.3075 22.2029 23.1185 21.1396 24.2417 20.7389V18.6267H26.1759V20.7389C27.2991 21.1396 28.1101 22.2029 28.1101 23.4621H26.1759C26.1759 22.9285 25.7425 22.495 25.2088 22.495C24.6751 22.495 24.2417 22.9285 24.2417 23.4621C24.2417 23.9958 24.6751 24.4292 25.2088 24.4292ZM25.2088 15.7254C19.8767 15.7254 15.5379 20.0642 15.5379 25.3963C15.5379 26.7732 15.8366 28.078 16.3577 29.2647H0V9.92287H29.0772V16.5452C27.8905 16.0241 26.5857 15.7254 25.2088 15.7254ZM25.2088 13.7912V11.857H21.3404V13.7912H25.2088ZM19.4063 11.857H15.5379V13.7912H19.4063V11.857ZM19.4063 15.7254H15.5379V17.6596H19.4063V15.7254ZM3.93283 21.5279H7.80119V19.5938H3.93283V21.5279ZM3.93283 17.6596H7.80119V15.7254H3.93283V17.6596ZM3.93283 13.7912H7.80119V11.857H3.93283V13.7912ZM9.73537 21.5279H13.6037V19.5938H9.73537V21.5279ZM9.73537 17.6596H13.6037V15.7254H9.73537V17.6596ZM9.73537 13.7912H13.6037V11.857H9.73537V13.7912Z" fill="#005487"></path></g><defs><linearGradient id="paint0_linear_1404_811" x1="0" y1="16.6925" x2="33.01" y2="16.6925" gradientUnits="userSpaceOnUse"><stop offset="0.21" stop-color="#005487"></stop><stop offset="1" stop-color="#0C7CC0"></stop></linearGradient><clipPath id="clip0_1404_811"><rect width="33.01" height="33.01" fill="white" transform="translate(0 0.1875)"></rect></clipPath></defs></svg> 