<?xml version="1.0" encoding="UTF-8"?> <svg xmlns="http://www.w3.org/2000/svg" width="33" height="34" viewBox="0 0 33 34" fill="none"><g clip-path="url(#clip0_1404_744)"><path fill-rule="evenodd" clip-rule="evenodd" d="M1.03154 16.2354H6.83408V15.2683C6.83408 11.3035 7.79015 7.56197 9.5262 4.73285C11.3526 1.7564 13.8311 0.117188 16.505 0.117188C19.1789 0.117188 21.6573 1.7564 23.4838 4.73285C25.2198 7.56197 26.1759 11.3035 26.1759 15.2683V16.2354H31.9784C32.5125 16.2354 32.9455 15.8024 32.9455 15.2683C32.9455 11.2053 31.2246 7.39015 28.0998 4.52576C24.9984 1.68284 20.8807 0.117188 16.505 0.117188C12.1293 0.117188 8.01148 1.68284 4.91015 4.52576C1.78536 7.39015 0.0644531 11.2053 0.0644531 15.2683C0.0644531 15.8024 0.497451 16.2354 1.03154 16.2354ZM15.5379 19.7537V16.2354H17.4721V19.7537C18.5988 20.152 19.4062 21.2261 19.4062 22.4892C19.4062 24.0915 18.1073 25.3905 16.505 25.3905C14.9026 25.3905 13.6037 24.0915 13.6037 22.4892C13.6037 21.2261 14.4112 20.1521 15.5379 19.7537ZM16.505 27.3243C17.734 27.3243 18.8567 26.8627 19.7107 26.1047C20.6966 26.8058 21.3404 27.9566 21.3404 29.2585V33.1269H11.6695V29.2585C11.6695 27.9566 12.3134 26.8058 13.2993 26.1047C14.1533 26.8627 15.276 27.3243 16.505 27.3243ZM28.1101 25.3905C29.7124 25.3905 31.0113 24.0915 31.0113 22.4892C31.0113 20.8869 29.7124 19.5879 28.1101 19.5879C26.5077 19.5879 25.2088 20.8869 25.2088 22.4892C25.2088 24.0915 26.5077 25.3905 28.1101 25.3905ZM28.1101 27.3243C29.339 27.3243 30.4618 26.8627 31.3158 26.1047C32.3017 26.8058 32.9455 27.9566 32.9455 29.2585V32.1598C32.9455 32.6939 32.5125 33.1269 31.9784 33.1269H23.2746V29.2585C23.2746 27.9566 23.9184 26.8058 24.9043 26.1047C25.7584 26.8627 26.8811 27.3243 28.1101 27.3243ZM4.8999 25.3905C6.50223 25.3905 7.80117 24.0915 7.80117 22.4892C7.80117 20.8869 6.50223 19.5879 4.8999 19.5879C3.29758 19.5879 1.99863 20.8869 1.99863 22.4892C1.99863 24.0915 3.29758 25.3905 4.8999 25.3905ZM4.8999 27.3243C6.12888 27.3243 7.25161 26.8627 8.10561 26.1047C9.09153 26.8058 9.73535 27.9566 9.73535 29.2585V33.1269H1.03154C0.497451 33.1269 0.0644531 32.6939 0.0644531 32.1598V29.2585C0.0644531 27.9566 0.708277 26.8058 1.69419 26.1047C2.5482 26.8627 3.67092 27.3243 4.8999 27.3243ZM11.1747 5.74408C9.62291 8.27295 8.76826 11.6553 8.76826 15.2678V16.2349H15.5379V2.15714C13.9178 2.51232 12.3956 3.75445 11.1747 5.74408ZM21.8353 5.74408C23.387 8.27295 24.2417 11.6553 24.2417 15.2678V16.2349H17.4721V2.15714C19.0921 2.51232 20.6143 3.75445 21.8353 5.74408Z" fill="url(#paint0_linear_1404_744)"></path><path fill-rule="evenodd" clip-rule="evenodd" d="M1.03154 16.2354H6.83408V15.2683C6.83408 11.3035 7.79015 7.56197 9.5262 4.73285C11.3526 1.7564 13.8311 0.117188 16.505 0.117188C19.1789 0.117188 21.6573 1.7564 23.4838 4.73285C25.2198 7.56197 26.1759 11.3035 26.1759 15.2683V16.2354H31.9784C32.5125 16.2354 32.9455 15.8024 32.9455 15.2683C32.9455 11.2053 31.2246 7.39015 28.0998 4.52576C24.9984 1.68284 20.8807 0.117188 16.505 0.117188C12.1293 0.117188 8.01148 1.68284 4.91015 4.52576C1.78536 7.39015 0.0644531 11.2053 0.0644531 15.2683C0.0644531 15.8024 0.497451 16.2354 1.03154 16.2354ZM15.5379 19.7537V16.2354H17.4721V19.7537C18.5988 20.152 19.4062 21.2261 19.4062 22.4892C19.4062 24.0915 18.1073 25.3905 16.505 25.3905C14.9026 25.3905 13.6037 24.0915 13.6037 22.4892C13.6037 21.2261 14.4112 20.1521 15.5379 19.7537ZM16.505 27.3243C17.734 27.3243 18.8567 26.8627 19.7107 26.1047C20.6966 26.8058 21.3404 27.9566 21.3404 29.2585V33.1269H11.6695V29.2585C11.6695 27.9566 12.3134 26.8058 13.2993 26.1047C14.1533 26.8627 15.276 27.3243 16.505 27.3243ZM28.1101 25.3905C29.7124 25.3905 31.0113 24.0915 31.0113 22.4892C31.0113 20.8869 29.7124 19.5879 28.1101 19.5879C26.5077 19.5879 25.2088 20.8869 25.2088 22.4892C25.2088 24.0915 26.5077 25.3905 28.1101 25.3905ZM28.1101 27.3243C29.339 27.3243 30.4618 26.8627 31.3158 26.1047C32.3017 26.8058 32.9455 27.9566 32.9455 29.2585V32.1598C32.9455 32.6939 32.5125 33.1269 31.9784 33.1269H23.2746V29.2585C23.2746 27.9566 23.9184 26.8058 24.9043 26.1047C25.7584 26.8627 26.8811 27.3243 28.1101 27.3243ZM4.8999 25.3905C6.50223 25.3905 7.80117 24.0915 7.80117 22.4892C7.80117 20.8869 6.50223 19.5879 4.8999 19.5879C3.29758 19.5879 1.99863 20.8869 1.99863 22.4892C1.99863 24.0915 3.29758 25.3905 4.8999 25.3905ZM4.8999 27.3243C6.12888 27.3243 7.25161 26.8627 8.10561 26.1047C9.09153 26.8058 9.73535 27.9566 9.73535 29.2585V33.1269H1.03154C0.497451 33.1269 0.0644531 32.6939 0.0644531 32.1598V29.2585C0.0644531 27.9566 0.708277 26.8058 1.69419 26.1047C2.5482 26.8627 3.67092 27.3243 4.8999 27.3243ZM11.1747 5.74408C9.62291 8.27295 8.76826 11.6553 8.76826 15.2678V16.2349H15.5379V2.15714C13.9178 2.51232 12.3956 3.75445 11.1747 5.74408ZM21.8353 5.74408C23.387 8.27295 24.2417 11.6553 24.2417 15.2678V16.2349H17.4721V2.15714C19.0921 2.51232 20.6143 3.75445 21.8353 5.74408Z" fill="#005487"></path></g><defs><linearGradient id="paint0_linear_1404_744" x1="0.0644531" y1="16.622" x2="32.9455" y2="16.622" gradientUnits="userSpaceOnUse"><stop offset="0.21" stop-color="#005487"></stop><stop offset="1" stop-color="#0C7CC0"></stop></linearGradient><clipPath id="clip0_1404_744"><rect width="33.01" height="33.01" fill="white" transform="translate(0 0.117188)"></rect></clipPath></defs></svg> 