<?xml version="1.0" encoding="UTF-8"?> <svg xmlns="http://www.w3.org/2000/svg" width="33" height="34" viewBox="0 0 33 34" fill="none"><g clip-path="url(#clip0_1404_609)"><path fill-rule="evenodd" clip-rule="evenodd" d="M8.76797 7.73672H16.5047V0H31.9781V29.0127H15.97C15.1868 26.8158 13.5634 25.0305 11.4683 24.0488C13.3299 22.8412 14.5705 20.7539 14.5705 18.3747C14.5705 14.9735 12.04 12.177 8.76797 11.7028V7.73672ZM16.5047 25.1443H28.1098V23.2102H16.5047V25.1443ZM16.5047 21.276H28.1098V19.3418H16.5047V21.276ZM20.373 8.70381C20.373 10.3035 21.6746 11.6051 23.2743 11.6051C23.808 11.6051 24.2414 12.0385 24.2414 12.5722C24.2414 13.1058 23.808 13.5393 23.2743 13.5393C22.7407 13.5393 22.3072 13.1058 22.3072 12.5722H20.373C20.373 13.8314 21.184 14.8947 22.3072 15.2954V17.4076H24.2414V15.2954C25.3646 14.8947 26.1756 13.8314 26.1756 12.5722C26.1756 10.9724 24.874 9.6709 23.2743 9.6709C22.7407 9.6709 22.3072 9.23747 22.3072 8.70381C22.3072 8.17015 22.7407 7.73672 23.2743 7.73672C23.808 7.73672 24.2414 8.17015 24.2414 8.70381H26.1756C26.1756 7.44458 25.3646 6.38128 24.2414 5.98059V3.86836H22.3072V5.98059C21.184 6.38128 20.373 7.44458 20.373 8.70381ZM14.5705 0.56615V5.80204H9.33462L14.5705 0.56615ZM12.6363 18.3747C12.6363 21.0453 10.4715 23.2102 7.80088 23.2102C5.1303 23.2102 2.96543 21.0453 2.96543 18.3747C2.96543 15.7041 5.1303 13.5393 7.80088 13.5393C10.4715 13.5393 12.6363 15.7041 12.6363 18.3747ZM1.03125 31.9784C1.03125 28.2398 4.06222 25.1443 7.80088 25.1443C11.5395 25.1443 14.5705 28.2398 14.5705 31.9784V33.01H1.03125V31.9784Z" fill="#005487"></path></g><defs><clipPath id="clip0_1404_609"><rect width="33.01" height="33.01" fill="white"></rect></clipPath></defs></svg> 