<?xml version="1.0" encoding="UTF-8"?> <svg xmlns="http://www.w3.org/2000/svg" width="33" height="34" viewBox="0 0 33 34" fill="none"><g clip-path="url(#clip0_1404_614)"><path fill-rule="evenodd" clip-rule="evenodd" d="M0.00186029 11.0965C0.151877 3.6005 9.30043 -1.9289 16.4956 4.36431C25.5083 -3.51848 37.3908 7.18645 31.3784 16.5833H23.2621L19.9257 10.3872C19.5514 9.69199 18.5398 9.71475 18.2004 10.4317L14.3083 18.6482L11.6382 14.4524C11.2499 13.8419 10.3607 13.8616 9.9932 14.474L8.7277 16.5833H1.61278C0.515088 14.8677 -0.0363691 13.0069 0.00186029 11.0965ZM19.1296 12.9883L21.8331 18.0091C22.0017 18.3224 22.3287 18.5177 22.6845 18.5176H29.8486C29.8357 18.5311 29.8274 18.54 29.819 18.5489C29.7027 18.6722 29.581 18.7905 17.1776 31.1297C16.8004 31.5051 16.1907 31.505 15.8135 31.1297C3.35911 18.7398 3.26327 18.6472 3.17269 18.5497C3.16506 18.5415 3.15747 18.5333 3.14254 18.5176H9.27522C9.61491 18.5176 9.92964 18.3395 10.1044 18.0482L10.8466 16.8112L13.6168 21.1642C14.0247 21.8053 14.9813 21.7457 15.3066 21.059L19.1296 12.9883Z" fill="url(#paint0_linear_1404_614)"></path><path fill-rule="evenodd" clip-rule="evenodd" d="M0.00186029 11.0965C0.151877 3.6005 9.30043 -1.9289 16.4956 4.36431C25.5083 -3.51848 37.3908 7.18645 31.3784 16.5833H23.2621L19.9257 10.3872C19.5514 9.69199 18.5398 9.71475 18.2004 10.4317L14.3083 18.6482L11.6382 14.4524C11.2499 13.8419 10.3607 13.8616 9.9932 14.474L8.7277 16.5833H1.61278C0.515088 14.8677 -0.0363691 13.0069 0.00186029 11.0965ZM19.1296 12.9883L21.8331 18.0091C22.0017 18.3224 22.3287 18.5177 22.6845 18.5176H29.8486C29.8357 18.5311 29.8274 18.54 29.819 18.5489C29.7027 18.6722 29.581 18.7905 17.1776 31.1297C16.8004 31.5051 16.1907 31.505 15.8135 31.1297C3.35911 18.7398 3.26327 18.6472 3.17269 18.5497C3.16506 18.5415 3.15747 18.5333 3.14254 18.5176H9.27522C9.61491 18.5176 9.92964 18.3395 10.1044 18.0482L10.8466 16.8112L13.6168 21.1642C14.0247 21.8053 14.9813 21.7457 15.3066 21.059L19.1296 12.9883Z" fill="#005487"></path></g><defs><linearGradient id="paint0_linear_1404_614" x1="0" y1="16.5181" x2="33.01" y2="16.5181" gradientUnits="userSpaceOnUse"><stop offset="0.21" stop-color="#005487"></stop><stop offset="1" stop-color="#0C7CC0"></stop></linearGradient><clipPath id="clip0_1404_614"><rect width="33.01" height="33.01" fill="white" transform="translate(0 0.0117188)"></rect></clipPath></defs></svg> 