<?xml version="1.0" encoding="UTF-8"?> <svg xmlns="http://www.w3.org/2000/svg" width="33" height="34" viewBox="0 0 33 34" fill="none"><g clip-path="url(#clip0_1404_621)"><path fill-rule="evenodd" clip-rule="evenodd" d="M23.9574 5.86585C25.5707 5.86585 26.8786 4.55798 26.8786 2.94464C26.8786 1.33131 25.5707 0.0234375 23.9574 0.0234375C22.344 0.0234375 21.0362 1.33131 21.0362 2.94464C21.0362 4.55798 22.344 5.86585 23.9574 5.86585ZM10.9109 6.88572C12.4687 6.88572 13.7316 5.62287 13.7316 4.06506C13.7316 2.50724 12.4687 1.24439 10.9109 1.24439C9.35311 1.24439 8.09026 2.50724 8.09026 4.06506C8.09026 5.62287 9.35311 6.88572 10.9109 6.88572ZM30.8939 8.28513V17.7502C31.7541 17.9935 32.3865 18.7849 32.3865 19.7219V21.4861C32.3865 21.8617 32.0699 22.1633 31.6891 22.1385C31.3417 22.116 31.0789 21.8119 31.0789 21.4637V19.7219C31.0789 19.4438 30.9247 19.2011 30.6974 19.0742C30.4695 19.4535 30.0643 19.7128 29.5957 19.7379V32.3779C29.5957 32.7534 29.2791 33.055 28.8983 33.0303C28.5508 33.0078 28.2881 32.7037 28.2881 32.3555V19.7219C28.2881 19.5147 28.3193 19.3146 28.3768 19.1258C28.233 18.9088 28.1488 18.6489 28.1488 18.3691V8.28947C28.1459 8.01926 27.8934 7.79145 27.6162 7.79145V31.366C27.6162 32.2632 26.9051 32.9929 26.0128 33.0127C25.0866 33.0333 24.3284 32.2553 24.3284 31.3288V18.2003H23.6173V31.366C23.6173 32.2652 22.8966 32.9963 22.0012 33.0128C21.0777 33.0299 20.3218 32.2513 20.3218 31.3277V7.79145C20.0339 7.79145 19.769 8.02877 19.7663 8.28999V18.0555C19.7663 19.6294 17.5776 20.0185 17.035 18.5411C15.6442 14.7536 14.2779 11.0271 14.2779 11.0271L16.164 20.9155C16.2524 21.3726 15.902 21.7943 15.4397 21.7943H14.4265V31.4264C14.4265 32.2962 13.7296 33.0032 12.8638 33.0196C11.9706 33.0365 11.2395 32.2838 11.2395 31.3905V21.7943H10.5516V31.4264C10.5516 32.2962 9.85472 33.0032 8.98892 33.0196C8.09574 33.0365 7.36466 32.2838 7.36466 31.3905V21.7943H6.3514C5.89073 21.7943 5.53875 21.3723 5.62718 20.9155L7.51337 11.0271C6.44986 14.0378 4.89293 18.2977 4.87441 18.3482C4.82146 18.493 4.74488 18.6219 4.65224 18.7346C4.69788 18.9043 4.72261 19.0825 4.72261 19.2664V32.3794C4.72261 32.755 4.40598 33.0566 4.02519 33.0319C3.67768 33.0093 3.41491 32.7053 3.41491 32.357V19.2665C3.41491 19.2446 3.41349 19.2232 3.41161 19.2018C3.33108 19.1885 3.25061 19.1684 3.17118 19.1394C2.86523 19.0275 2.62577 18.8145 2.47564 18.5523C2.16251 18.6391 1.93165 18.9259 1.93165 19.2664V21.0305C1.93165 21.4061 1.61502 21.7076 1.23424 21.683C0.886792 21.6604 0.624023 21.3564 0.624023 21.0081V19.2664C0.624023 18.2099 1.42774 17.3377 2.45583 17.2288C2.84891 16.1516 4.67146 11.1495 5.52489 8.66611C6.03561 7.18007 6.83311 6.3019 7.90043 6.04477C8.54593 7.02275 9.65403 7.66974 10.911 7.66974C12.1651 7.66974 13.2713 7.02567 13.9174 6.05124C14.9714 6.31653 15.7599 7.1925 16.2663 8.66624C16.4726 9.26642 16.7355 10.0139 17.0211 10.8174V8.28513V8.27827C17.0301 6.49612 18.5099 5.04626 20.32 5.04626H20.9077C21.577 6.01434 22.6941 6.65026 23.9575 6.65026C25.2208 6.65026 26.338 6.01441 27.0073 5.04626H27.6332C29.4221 5.04626 30.8849 6.49612 30.8939 8.2782V8.28513Z" fill="url(#paint0_linear_1404_621)"></path><path fill-rule="evenodd" clip-rule="evenodd" d="M23.9574 5.86585C25.5707 5.86585 26.8786 4.55798 26.8786 2.94464C26.8786 1.33131 25.5707 0.0234375 23.9574 0.0234375C22.344 0.0234375 21.0362 1.33131 21.0362 2.94464C21.0362 4.55798 22.344 5.86585 23.9574 5.86585ZM10.9109 6.88572C12.4687 6.88572 13.7316 5.62287 13.7316 4.06506C13.7316 2.50724 12.4687 1.24439 10.9109 1.24439C9.35311 1.24439 8.09026 2.50724 8.09026 4.06506C8.09026 5.62287 9.35311 6.88572 10.9109 6.88572ZM30.8939 8.28513V17.7502C31.7541 17.9935 32.3865 18.7849 32.3865 19.7219V21.4861C32.3865 21.8617 32.0699 22.1633 31.6891 22.1385C31.3417 22.116 31.0789 21.8119 31.0789 21.4637V19.7219C31.0789 19.4438 30.9247 19.2011 30.6974 19.0742C30.4695 19.4535 30.0643 19.7128 29.5957 19.7379V32.3779C29.5957 32.7534 29.2791 33.055 28.8983 33.0303C28.5508 33.0078 28.2881 32.7037 28.2881 32.3555V19.7219C28.2881 19.5147 28.3193 19.3146 28.3768 19.1258C28.233 18.9088 28.1488 18.6489 28.1488 18.3691V8.28947C28.1459 8.01926 27.8934 7.79145 27.6162 7.79145V31.366C27.6162 32.2632 26.9051 32.9929 26.0128 33.0127C25.0866 33.0333 24.3284 32.2553 24.3284 31.3288V18.2003H23.6173V31.366C23.6173 32.2652 22.8966 32.9963 22.0012 33.0128C21.0777 33.0299 20.3218 32.2513 20.3218 31.3277V7.79145C20.0339 7.79145 19.769 8.02877 19.7663 8.28999V18.0555C19.7663 19.6294 17.5776 20.0185 17.035 18.5411C15.6442 14.7536 14.2779 11.0271 14.2779 11.0271L16.164 20.9155C16.2524 21.3726 15.902 21.7943 15.4397 21.7943H14.4265V31.4264C14.4265 32.2962 13.7296 33.0032 12.8638 33.0196C11.9706 33.0365 11.2395 32.2838 11.2395 31.3905V21.7943H10.5516V31.4264C10.5516 32.2962 9.85472 33.0032 8.98892 33.0196C8.09574 33.0365 7.36466 32.2838 7.36466 31.3905V21.7943H6.3514C5.89073 21.7943 5.53875 21.3723 5.62718 20.9155L7.51337 11.0271C6.44986 14.0378 4.89293 18.2977 4.87441 18.3482C4.82146 18.493 4.74488 18.6219 4.65224 18.7346C4.69788 18.9043 4.72261 19.0825 4.72261 19.2664V32.3794C4.72261 32.755 4.40598 33.0566 4.02519 33.0319C3.67768 33.0093 3.41491 32.7053 3.41491 32.357V19.2665C3.41491 19.2446 3.41349 19.2232 3.41161 19.2018C3.33108 19.1885 3.25061 19.1684 3.17118 19.1394C2.86523 19.0275 2.62577 18.8145 2.47564 18.5523C2.16251 18.6391 1.93165 18.9259 1.93165 19.2664V21.0305C1.93165 21.4061 1.61502 21.7076 1.23424 21.683C0.886792 21.6604 0.624023 21.3564 0.624023 21.0081V19.2664C0.624023 18.2099 1.42774 17.3377 2.45583 17.2288C2.84891 16.1516 4.67146 11.1495 5.52489 8.66611C6.03561 7.18007 6.83311 6.3019 7.90043 6.04477C8.54593 7.02275 9.65403 7.66974 10.911 7.66974C12.1651 7.66974 13.2713 7.02567 13.9174 6.05124C14.9714 6.31653 15.7599 7.1925 16.2663 8.66624C16.4726 9.26642 16.7355 10.0139 17.0211 10.8174V8.28513V8.27827C17.0301 6.49612 18.5099 5.04626 20.32 5.04626H20.9077C21.577 6.01434 22.6941 6.65026 23.9575 6.65026C25.2208 6.65026 26.338 6.01441 27.0073 5.04626H27.6332C29.4221 5.04626 30.8849 6.49612 30.8939 8.2782V8.28513Z" fill="#005487"></path></g><defs><linearGradient id="paint0_linear_1404_621" x1="0.624023" y1="16.5284" x2="32.3865" y2="16.5284" gradientUnits="userSpaceOnUse"><stop offset="0.21" stop-color="#005487"></stop><stop offset="1" stop-color="#0C7CC0"></stop></linearGradient><clipPath id="clip0_1404_621"><rect width="33.01" height="33.01" fill="white" transform="translate(0 0.0234375)"></rect></clipPath></defs></svg> 