<?xml version="1.0" encoding="UTF-8"?> <svg xmlns="http://www.w3.org/2000/svg" width="33" height="34" viewBox="0 0 33 34" fill="none"><g clip-path="url(#clip0_1404_723)"><path fill-rule="evenodd" clip-rule="evenodd" d="M0 18.0601C0 8.12932 8.03692 0.09375 17.9663 0.09375C18.5009 0.09375 18.9343 0.527136 18.9343 1.06174V18.0601C18.9343 18.5947 18.5009 19.0281 17.9663 19.0281H0.967994C0.433386 19.0281 0 18.5947 0 18.0601ZM10.2304 21.3234C10.584 21.3234 10.9095 21.5162 11.0793 21.8263C12.3017 24.0579 14.5139 25.5393 16.9983 25.8476V33.1034C10.6641 32.7057 5.40535 28.3883 3.58212 22.5813C3.48986 22.2873 3.54299 21.967 3.72538 21.7185C3.90771 21.4701 4.19752 21.3234 4.50563 21.3234H10.2304ZM22.4878 3.67607C22.1939 3.58387 21.8734 3.63706 21.625 3.81933C21.3766 4.00172 21.2299 4.29146 21.2299 4.59964V10.3244C21.2299 10.6779 21.4227 11.0033 21.7328 11.1732C23.9643 12.3958 25.4458 14.6078 25.7541 17.0921H33.0099C32.6112 10.7443 28.2811 5.49504 22.4878 3.67607ZM18.9343 25.8486C22.4899 25.4095 25.3163 22.5831 25.7554 19.0276H33.0093C32.5332 26.5911 26.4875 32.6272 18.9343 33.1026V25.8486Z" fill="url(#paint0_linear_1404_723)"></path><path fill-rule="evenodd" clip-rule="evenodd" d="M0 18.0601C0 8.12932 8.03692 0.09375 17.9663 0.09375C18.5009 0.09375 18.9343 0.527136 18.9343 1.06174V18.0601C18.9343 18.5947 18.5009 19.0281 17.9663 19.0281H0.967994C0.433386 19.0281 0 18.5947 0 18.0601ZM10.2304 21.3234C10.584 21.3234 10.9095 21.5162 11.0793 21.8263C12.3017 24.0579 14.5139 25.5393 16.9983 25.8476V33.1034C10.6641 32.7057 5.40535 28.3883 3.58212 22.5813C3.48986 22.2873 3.54299 21.967 3.72538 21.7185C3.90771 21.4701 4.19752 21.3234 4.50563 21.3234H10.2304ZM22.4878 3.67607C22.1939 3.58387 21.8734 3.63706 21.625 3.81933C21.3766 4.00172 21.2299 4.29146 21.2299 4.59964V10.3244C21.2299 10.6779 21.4227 11.0033 21.7328 11.1732C23.9643 12.3958 25.4458 14.6078 25.7541 17.0921H33.0099C32.6112 10.7443 28.2811 5.49504 22.4878 3.67607ZM18.9343 25.8486C22.4899 25.4095 25.3163 22.5831 25.7554 19.0276H33.0093C32.5332 26.5911 26.4875 32.6272 18.9343 33.1026V25.8486Z" fill="#005487"></path></g><defs><linearGradient id="paint0_linear_1404_723" x1="0" y1="16.5986" x2="33.0099" y2="16.5986" gradientUnits="userSpaceOnUse"><stop offset="0.21" stop-color="#005487"></stop><stop offset="1" stop-color="#0C7CC0"></stop></linearGradient><clipPath id="clip0_1404_723"><rect width="33.01" height="33.01" fill="white" transform="translate(0 0.09375)"></rect></clipPath></defs></svg> 