<?xml version="1.0" encoding="UTF-8"?> <svg xmlns="http://www.w3.org/2000/svg" width="33" height="34" viewBox="0 0 33 34" fill="none"><g clip-path="url(#clip0_1404_788)"><path fill-rule="evenodd" clip-rule="evenodd" d="M25.7341 0.484947L32.7788 8.75563C33.0236 9.04311 33.079 9.44665 32.9206 9.78945C32.7623 10.1322 32.4192 10.3517 32.0416 10.3517H29.8427V32.1762C29.8427 32.71 29.4106 33.1431 28.8767 33.1443L26.229 33.1481C26.3464 32.8371 26.4112 32.5005 26.4112 32.149V17.1847C26.4112 15.6204 25.1386 14.3479 23.5744 14.3479H19.8835V10.3516H17.9525C17.5749 10.3516 17.2318 10.1322 17.0735 9.78938C16.9152 9.44664 16.9706 9.04305 17.2154 8.75563L24.26 0.484947C24.444 0.268963 24.7133 0.144531 24.9971 0.144531C25.2808 0.144531 25.5502 0.268963 25.7341 0.484947ZM14.4202 12.8739H10.2804V14.3475H8.34619V11.9068C8.34619 11.3727 8.77919 10.9397 9.31328 10.9397H15.3873C15.9214 10.9397 16.3544 11.3727 16.3544 11.9068V14.3475H14.4202V12.8739ZM5.06491 22.525V21.1383C5.06491 20.6042 5.49791 20.1712 6.032 20.1712C6.56609 20.1712 6.99909 20.6042 6.99909 21.1383V22.525H17.5621V21.1383C17.5621 20.6042 17.9951 20.1712 18.5292 20.1712C19.0633 20.1712 19.4963 20.6042 19.4963 21.1383V22.525H24.5416V17.1845C24.5416 16.6504 24.1086 16.2174 23.5745 16.2174H0.96709C0.432998 16.2174 0 16.6504 0 17.1845V22.525H5.06491ZM24.5415 32.1493C24.5415 32.6834 24.1085 33.1164 23.5744 33.1164V33.1165H0.96709C0.432998 33.1165 0 32.6835 0 32.1494V24.4598H5.06484V25.4026C5.06484 25.9367 5.49784 26.3697 6.03193 26.3697C6.56602 26.3697 6.99902 25.9367 6.99902 25.4026V24.4598H11.3134V25.4026C11.3134 25.9367 11.7464 26.3697 12.2805 26.3697C12.8146 26.3697 13.2476 25.9367 13.2476 25.4026V24.4598H17.562V25.4026C17.562 25.9367 17.995 26.3697 18.5291 26.3697C19.0632 26.3697 19.4962 25.9367 19.4962 25.4026V24.4598H24.5415V32.1493Z" fill="url(#paint0_linear_1404_788)"></path><path fill-rule="evenodd" clip-rule="evenodd" d="M25.7341 0.484947L32.7788 8.75563C33.0236 9.04311 33.079 9.44665 32.9206 9.78945C32.7623 10.1322 32.4192 10.3517 32.0416 10.3517H29.8427V32.1762C29.8427 32.71 29.4106 33.1431 28.8767 33.1443L26.229 33.1481C26.3464 32.8371 26.4112 32.5005 26.4112 32.149V17.1847C26.4112 15.6204 25.1386 14.3479 23.5744 14.3479H19.8835V10.3516H17.9525C17.5749 10.3516 17.2318 10.1322 17.0735 9.78938C16.9152 9.44664 16.9706 9.04305 17.2154 8.75563L24.26 0.484947C24.444 0.268963 24.7133 0.144531 24.9971 0.144531C25.2808 0.144531 25.5502 0.268963 25.7341 0.484947ZM14.4202 12.8739H10.2804V14.3475H8.34619V11.9068C8.34619 11.3727 8.77919 10.9397 9.31328 10.9397H15.3873C15.9214 10.9397 16.3544 11.3727 16.3544 11.9068V14.3475H14.4202V12.8739ZM5.06491 22.525V21.1383C5.06491 20.6042 5.49791 20.1712 6.032 20.1712C6.56609 20.1712 6.99909 20.6042 6.99909 21.1383V22.525H17.5621V21.1383C17.5621 20.6042 17.9951 20.1712 18.5292 20.1712C19.0633 20.1712 19.4963 20.6042 19.4963 21.1383V22.525H24.5416V17.1845C24.5416 16.6504 24.1086 16.2174 23.5745 16.2174H0.96709C0.432998 16.2174 0 16.6504 0 17.1845V22.525H5.06491ZM24.5415 32.1493C24.5415 32.6834 24.1085 33.1164 23.5744 33.1164V33.1165H0.96709C0.432998 33.1165 0 32.6835 0 32.1494V24.4598H5.06484V25.4026C5.06484 25.9367 5.49784 26.3697 6.03193 26.3697C6.56602 26.3697 6.99902 25.9367 6.99902 25.4026V24.4598H11.3134V25.4026C11.3134 25.9367 11.7464 26.3697 12.2805 26.3697C12.8146 26.3697 13.2476 25.9367 13.2476 25.4026V24.4598H17.562V25.4026C17.562 25.9367 17.995 26.3697 18.5291 26.3697C19.0632 26.3697 19.4962 25.9367 19.4962 25.4026V24.4598H24.5415V32.1493Z" fill="#005487"></path></g><defs><linearGradient id="paint0_linear_1404_788" x1="0" y1="16.6463" x2="33.0099" y2="16.6463" gradientUnits="userSpaceOnUse"><stop offset="0.21" stop-color="#005487"></stop><stop offset="1" stop-color="#0C7CC0"></stop></linearGradient><clipPath id="clip0_1404_788"><rect width="33.01" height="33.01" fill="white" transform="translate(0 0.140625)"></rect></clipPath></defs></svg> 