<?xml version="1.0" encoding="UTF-8"?> <svg xmlns="http://www.w3.org/2000/svg" width="33" height="34" viewBox="0 0 33 34" fill="none"><g clip-path="url(#clip0_1404_650)"><path fill-rule="evenodd" clip-rule="evenodd" d="M22.9363 6.07138L16.1667 0.268902C15.8059 -0.042759 15.2695 -0.042759 14.9087 0.268902L8.1392 6.07138C7.83135 6.33391 7.72084 6.76078 7.86152 7.14046C8.0013 7.52014 8.36299 7.77229 8.7682 7.77229H11.6694V33.0452H18.439C18.9735 33.0452 19.4061 32.6127 19.4061 32.0782V29.8723C15.967 28.1077 13.6036 24.5327 13.6036 20.4088C13.6036 16.2849 15.967 12.7099 19.4061 10.9453V7.77236H22.3073C22.7124 7.77236 23.0742 7.52021 23.2139 7.14053C23.3547 6.76078 23.2442 6.33391 22.9363 6.07138ZM15.5377 20.4084C15.5377 15.6089 19.4419 11.7047 24.2414 11.7047C29.0409 11.7047 33.0095 15.6089 33.0095 20.4084C33.0095 25.2079 29.0408 29.1121 24.2413 29.1121C19.4419 29.1121 15.5377 25.2079 15.5377 20.4084ZM25.2208 25.0714C25.2252 25.071 25.2296 25.0706 25.2339 25.069C26.3757 24.6535 27.1426 23.558 27.1425 22.3426C27.1425 20.7429 25.8411 19.4414 24.2413 19.4414C23.7077 19.4414 23.2742 19.0079 23.2742 18.4743C23.2742 18.0843 23.5065 17.7348 23.8654 17.5828C24.2961 17.3986 24.8164 17.5554 25.2868 18.0115C25.6702 18.3827 26.2831 18.3742 26.6543 17.9908C27.0264 17.6064 27.0169 16.9944 26.6335 16.6233C26.1975 16.201 25.7092 15.932 25.2084 15.7629V14.606C25.2084 14.0714 24.7759 13.6389 24.2413 13.6389C23.7068 13.6389 23.2742 14.0714 23.2742 14.606V15.7611C23.2494 15.77 23.224 15.7745 23.1986 15.779C23.1691 15.7842 23.1395 15.7895 23.1109 15.8016C22.0351 16.2567 21.3401 17.306 21.3401 18.4743C21.3401 20.074 22.6414 21.3755 24.2413 21.3755C24.7748 21.3755 25.2084 21.809 25.2084 22.3426C25.2084 22.7477 24.9524 23.1132 24.5718 23.252C24.0769 23.4296 23.498 23.1878 22.9861 22.5787C22.6452 22.1687 22.0332 22.1159 21.6243 22.4596C21.2143 22.8024 21.1615 23.4126 21.5052 23.8215C22.027 24.4435 22.6373 24.8518 23.2742 25.067V26.2109C23.2742 26.7454 23.7067 27.1779 24.2413 27.1779C24.7758 27.1779 25.2084 26.7454 25.2084 26.2109V25.0736C25.2125 25.0722 25.2167 25.0718 25.2208 25.0714ZM0 22.3427C0 21.8082 0.432547 21.3756 0.96709 21.3756H3.86829V33.045H0.96709C0.432547 33.045 0 32.6125 0 32.0779V22.3427ZM5.86701 14.606C5.86701 14.0714 6.29956 13.6389 6.8341 13.6389H9.73531V33.0448H5.86701V21.3755V14.606Z" fill="url(#paint0_linear_1404_650)"></path><path fill-rule="evenodd" clip-rule="evenodd" d="M22.9363 6.07138L16.1667 0.268902C15.8059 -0.042759 15.2695 -0.042759 14.9087 0.268902L8.1392 6.07138C7.83135 6.33391 7.72084 6.76078 7.86152 7.14046C8.0013 7.52014 8.36299 7.77229 8.7682 7.77229H11.6694V33.0452H18.439C18.9735 33.0452 19.4061 32.6127 19.4061 32.0782V29.8723C15.967 28.1077 13.6036 24.5327 13.6036 20.4088C13.6036 16.2849 15.967 12.7099 19.4061 10.9453V7.77236H22.3073C22.7124 7.77236 23.0742 7.52021 23.2139 7.14053C23.3547 6.76078 23.2442 6.33391 22.9363 6.07138ZM15.5377 20.4084C15.5377 15.6089 19.4419 11.7047 24.2414 11.7047C29.0409 11.7047 33.0095 15.6089 33.0095 20.4084C33.0095 25.2079 29.0408 29.1121 24.2413 29.1121C19.4419 29.1121 15.5377 25.2079 15.5377 20.4084ZM25.2208 25.0714C25.2252 25.071 25.2296 25.0706 25.2339 25.069C26.3757 24.6535 27.1426 23.558 27.1425 22.3426C27.1425 20.7429 25.8411 19.4414 24.2413 19.4414C23.7077 19.4414 23.2742 19.0079 23.2742 18.4743C23.2742 18.0843 23.5065 17.7348 23.8654 17.5828C24.2961 17.3986 24.8164 17.5554 25.2868 18.0115C25.6702 18.3827 26.2831 18.3742 26.6543 17.9908C27.0264 17.6064 27.0169 16.9944 26.6335 16.6233C26.1975 16.201 25.7092 15.932 25.2084 15.7629V14.606C25.2084 14.0714 24.7759 13.6389 24.2413 13.6389C23.7068 13.6389 23.2742 14.0714 23.2742 14.606V15.7611C23.2494 15.77 23.224 15.7745 23.1986 15.779C23.1691 15.7842 23.1395 15.7895 23.1109 15.8016C22.0351 16.2567 21.3401 17.306 21.3401 18.4743C21.3401 20.074 22.6414 21.3755 24.2413 21.3755C24.7748 21.3755 25.2084 21.809 25.2084 22.3426C25.2084 22.7477 24.9524 23.1132 24.5718 23.252C24.0769 23.4296 23.498 23.1878 22.9861 22.5787C22.6452 22.1687 22.0332 22.1159 21.6243 22.4596C21.2143 22.8024 21.1615 23.4126 21.5052 23.8215C22.027 24.4435 22.6373 24.8518 23.2742 25.067V26.2109C23.2742 26.7454 23.7067 27.1779 24.2413 27.1779C24.7758 27.1779 25.2084 26.7454 25.2084 26.2109V25.0736C25.2125 25.0722 25.2167 25.0718 25.2208 25.0714ZM0 22.3427C0 21.8082 0.432547 21.3756 0.96709 21.3756H3.86829V33.045H0.96709C0.432547 33.045 0 32.6125 0 32.0779V22.3427ZM5.86701 14.606C5.86701 14.0714 6.29956 13.6389 6.8341 13.6389H9.73531V33.0448H5.86701V21.3755V14.606Z" fill="#005487"></path></g><defs><linearGradient id="paint0_linear_1404_650" x1="16.5047" y1="0.0351562" x2="16.5047" y2="33.0452" gradientUnits="userSpaceOnUse"><stop stop-color="#005487"></stop><stop offset="1" stop-color="#0A74B4"></stop></linearGradient><clipPath id="clip0_1404_650"><rect width="33.01" height="33.01" fill="white" transform="translate(0 0.0351562)"></rect></clipPath></defs></svg> 