<?xml version="1.0" encoding="UTF-8"?> <svg xmlns="http://www.w3.org/2000/svg" width="33" height="34" viewBox="0 0 33 34" fill="none"><g clip-path="url(#clip0_1404_796)"><path fill-rule="evenodd" clip-rule="evenodd" d="M32.2522 13.6045C34.3391 8.68792 31.9427 3.01053 27.0263 0.923613C22.1098 -1.1633 16.4323 1.13057 14.3454 6.047C13.8055 7.31891 13.5914 8.63802 13.6075 9.93624L29.8645 16.8369C30.8095 15.9466 31.7123 14.8763 32.2522 13.6045ZM23.2776 23.3625C21.1441 23.3625 19.4092 25.0974 19.4092 27.2309C19.4092 29.3643 21.1441 31.1637 23.2776 31.1637C25.411 31.1637 27.1459 29.3643 27.1459 27.2309C27.1459 25.0974 25.411 23.3625 23.2776 23.3625ZM17.7643 17.793C15.7851 16.4338 14.4508 14.4033 13.889 12.1574L28.0712 18.1772C26.0653 19.3335 23.6777 19.7841 21.3252 19.3045L18.2261 26.6056C17.8087 27.5888 16.6733 28.0477 15.6899 27.6302C14.7065 27.2129 14.2478 26.0773 14.6652 25.094L17.7643 17.793ZM9.73828 33.1623C10.8065 33.1623 11.6725 32.2963 11.6725 31.2282V23.1676C12.3867 23.0226 13.0566 22.774 13.7015 22.479L14.9686 19.4941H1.97035C3.36503 21.3421 5.45117 22.6899 7.8041 23.1676V31.2282C7.8041 32.2963 8.66996 33.1623 9.73828 33.1623ZM9.7383 4.0207C10.8682 4.0207 11.9366 4.25126 12.9446 4.6074C12.9022 4.69134 12.8573 4.77345 12.8125 4.85554C12.7346 4.99794 12.6567 5.14027 12.5924 5.29191C10.8093 9.49411 11.7235 14.2737 14.6674 17.56H0.843331C0.321296 16.3713 0.00292969 15.0733 0.00292969 13.6916C0.00292969 8.35056 4.39726 4.0207 9.7383 4.0207Z" fill="url(#paint0_linear_1404_796)"></path><path fill-rule="evenodd" clip-rule="evenodd" d="M32.2522 13.6045C34.3391 8.68792 31.9427 3.01053 27.0263 0.923613C22.1098 -1.1633 16.4323 1.13057 14.3454 6.047C13.8055 7.31891 13.5914 8.63802 13.6075 9.93624L29.8645 16.8369C30.8095 15.9466 31.7123 14.8763 32.2522 13.6045ZM23.2776 23.3625C21.1441 23.3625 19.4092 25.0974 19.4092 27.2309C19.4092 29.3643 21.1441 31.1637 23.2776 31.1637C25.411 31.1637 27.1459 29.3643 27.1459 27.2309C27.1459 25.0974 25.411 23.3625 23.2776 23.3625ZM17.7643 17.793C15.7851 16.4338 14.4508 14.4033 13.889 12.1574L28.0712 18.1772C26.0653 19.3335 23.6777 19.7841 21.3252 19.3045L18.2261 26.6056C17.8087 27.5888 16.6733 28.0477 15.6899 27.6302C14.7065 27.2129 14.2478 26.0773 14.6652 25.094L17.7643 17.793ZM9.73828 33.1623C10.8065 33.1623 11.6725 32.2963 11.6725 31.2282V23.1676C12.3867 23.0226 13.0566 22.774 13.7015 22.479L14.9686 19.4941H1.97035C3.36503 21.3421 5.45117 22.6899 7.8041 23.1676V31.2282C7.8041 32.2963 8.66996 33.1623 9.73828 33.1623ZM9.7383 4.0207C10.8682 4.0207 11.9366 4.25126 12.9446 4.6074C12.9022 4.69134 12.8573 4.77345 12.8125 4.85554C12.7346 4.99794 12.6567 5.14027 12.5924 5.29191C10.8093 9.49411 11.7235 14.2737 14.6674 17.56H0.843331C0.321296 16.3713 0.00292969 15.0733 0.00292969 13.6916C0.00292969 8.35056 4.39726 4.0207 9.7383 4.0207Z" fill="#005487"></path></g><defs><linearGradient id="paint0_linear_1404_796" x1="0.00292969" y1="16.6573" x2="33.0076" y2="16.6573" gradientUnits="userSpaceOnUse"><stop offset="0.21" stop-color="#005487"></stop><stop offset="1" stop-color="#0C7CC0"></stop></linearGradient><clipPath id="clip0_1404_796"><rect width="33.01" height="33.01" fill="white" transform="translate(0 0.152344)"></rect></clipPath></defs></svg> 