<?xml version="1.0" encoding="UTF-8"?> <svg xmlns="http://www.w3.org/2000/svg" width="33" height="34" viewBox="0 0 33 34" fill="none"><g clip-path="url(#clip0_1404_800)"><path fill-rule="evenodd" clip-rule="evenodd" d="M15.4689 2.22656H29.9715C31.6495 2.22656 33.01 3.58704 33.01 5.26509V16.6601C33.01 18.3382 31.6495 19.6987 29.9715 19.6987H25.0998L28.8069 29.7932C29.0429 30.4346 28.5594 31.0934 27.8998 31.0934C27.5054 31.0934 27.1352 30.8512 26.9914 30.4598L23.0394 19.6987H22.3617L18.4495 30.4565C18.307 30.8499 17.9357 31.0934 17.5411 31.0934C16.8352 31.0934 16.4141 30.3946 16.6319 29.7957L20.3038 19.6987H18.9116C19.069 19.1539 19.1187 18.591 19.0627 18.0327L21.1715 13.8143C21.8892 12.3802 21.3082 10.639 19.8745 9.92147C18.4437 9.20648 16.6977 9.788 15.9814 11.2192L14.7985 13.5861L12.4304 12.4087V5.26509C12.4304 3.58704 13.7906 2.22656 15.4689 2.22656ZM23.5602 15.5555H27.8993C28.4337 15.5555 28.8664 15.1224 28.8664 14.5884C28.8664 14.054 28.4337 13.6213 27.8993 13.6213H23.5602C23.0263 13.6213 22.5931 14.054 22.5931 14.5884C22.5931 15.1224 23.0263 15.5555 23.5602 15.5555ZM23.5602 11.9297H27.8993C28.4337 11.9297 28.8664 11.497 28.8664 10.9626C28.8664 10.4287 28.4337 9.99552 27.8993 9.99552H23.5602C23.0263 9.99552 22.5931 10.4287 22.5931 10.9626C22.5931 11.497 23.0263 11.9297 23.5602 11.9297ZM17.5411 8.30437H27.8993C28.4337 8.30437 28.8664 7.87119 28.8664 7.33728C28.8664 6.80337 28.4337 6.37019 27.8993 6.37019H17.5411C17.0067 6.37019 16.574 6.80337 16.574 7.33728C16.574 7.87119 17.0067 8.30437 17.5411 8.30437ZM17.0417 17.7489C17.1893 18.2369 17.1905 18.7719 17.0157 19.2839L17.012 19.2952C16.7679 20.0172 16.2207 20.5988 15.5107 20.8909C14.7987 21.1805 14.0004 21.1498 13.3171 20.8083C12.3425 20.3207 11.1379 19.7185 10.2209 19.2602V30.1261C10.2209 30.6603 9.78801 31.0932 9.25384 31.0932H3.03878C2.50461 31.0932 2.07169 30.6603 2.07169 30.1261V24.7205C0.868618 24.3155 0 23.1772 0 21.8393V18.7318C0 17.0873 0.639941 15.5434 1.80171 14.3847C2.94131 13.2421 4.52543 12.5855 6.14581 12.5855C4.93719 12.5853 3.84695 12.076 3.07932 11.2598C2.36937 10.5063 1.93418 9.49082 1.93418 8.37338C1.93418 6.04657 3.82 4.16074 6.14606 4.16074C8.47312 4.16074 10.3589 6.04657 10.3589 8.37338C10.3589 9.379 10.0069 10.3018 9.41804 11.0258C8.64639 11.9773 7.46749 12.5853 6.14656 12.5853H7.00108C8.49676 12.5853 9.44665 13.0682 10.6054 13.6573C10.7609 13.7364 10.9201 13.8174 11.085 13.8994C11.301 14.0068 11.5246 14.118 11.7527 14.2314C13.1056 14.9042 14.6179 15.6563 15.6648 16.1776L17.7118 12.0841C17.9508 11.6063 18.5319 11.4127 19.0094 11.6517C19.4871 11.8904 19.6805 12.4714 19.4418 12.9492L17.0417 17.7489Z" fill="url(#paint0_linear_1404_800)"></path><path fill-rule="evenodd" clip-rule="evenodd" d="M15.4689 2.22656H29.9715C31.6495 2.22656 33.01 3.58704 33.01 5.26509V16.6601C33.01 18.3382 31.6495 19.6987 29.9715 19.6987H25.0998L28.8069 29.7932C29.0429 30.4346 28.5594 31.0934 27.8998 31.0934C27.5054 31.0934 27.1352 30.8512 26.9914 30.4598L23.0394 19.6987H22.3617L18.4495 30.4565C18.307 30.8499 17.9357 31.0934 17.5411 31.0934C16.8352 31.0934 16.4141 30.3946 16.6319 29.7957L20.3038 19.6987H18.9116C19.069 19.1539 19.1187 18.591 19.0627 18.0327L21.1715 13.8143C21.8892 12.3802 21.3082 10.639 19.8745 9.92147C18.4437 9.20648 16.6977 9.788 15.9814 11.2192L14.7985 13.5861L12.4304 12.4087V5.26509C12.4304 3.58704 13.7906 2.22656 15.4689 2.22656ZM23.5602 15.5555H27.8993C28.4337 15.5555 28.8664 15.1224 28.8664 14.5884C28.8664 14.054 28.4337 13.6213 27.8993 13.6213H23.5602C23.0263 13.6213 22.5931 14.054 22.5931 14.5884C22.5931 15.1224 23.0263 15.5555 23.5602 15.5555ZM23.5602 11.9297H27.8993C28.4337 11.9297 28.8664 11.497 28.8664 10.9626C28.8664 10.4287 28.4337 9.99552 27.8993 9.99552H23.5602C23.0263 9.99552 22.5931 10.4287 22.5931 10.9626C22.5931 11.497 23.0263 11.9297 23.5602 11.9297ZM17.5411 8.30437H27.8993C28.4337 8.30437 28.8664 7.87119 28.8664 7.33728C28.8664 6.80337 28.4337 6.37019 27.8993 6.37019H17.5411C17.0067 6.37019 16.574 6.80337 16.574 7.33728C16.574 7.87119 17.0067 8.30437 17.5411 8.30437ZM17.0417 17.7489C17.1893 18.2369 17.1905 18.7719 17.0157 19.2839L17.012 19.2952C16.7679 20.0172 16.2207 20.5988 15.5107 20.8909C14.7987 21.1805 14.0004 21.1498 13.3171 20.8083C12.3425 20.3207 11.1379 19.7185 10.2209 19.2602V30.1261C10.2209 30.6603 9.78801 31.0932 9.25384 31.0932H3.03878C2.50461 31.0932 2.07169 30.6603 2.07169 30.1261V24.7205C0.868618 24.3155 0 23.1772 0 21.8393V18.7318C0 17.0873 0.639941 15.5434 1.80171 14.3847C2.94131 13.2421 4.52543 12.5855 6.14581 12.5855C4.93719 12.5853 3.84695 12.076 3.07932 11.2598C2.36937 10.5063 1.93418 9.49082 1.93418 8.37338C1.93418 6.04657 3.82 4.16074 6.14606 4.16074C8.47312 4.16074 10.3589 6.04657 10.3589 8.37338C10.3589 9.379 10.0069 10.3018 9.41804 11.0258C8.64639 11.9773 7.46749 12.5853 6.14656 12.5853H7.00108C8.49676 12.5853 9.44665 13.0682 10.6054 13.6573C10.7609 13.7364 10.9201 13.8174 11.085 13.8994C11.301 14.0068 11.5246 14.118 11.7527 14.2314C13.1056 14.9042 14.6179 15.6563 15.6648 16.1776L17.7118 12.0841C17.9508 11.6063 18.5319 11.4127 19.0094 11.6517C19.4871 11.8904 19.6805 12.4714 19.4418 12.9492L17.0417 17.7489Z" fill="#005487"></path></g><defs><linearGradient id="paint0_linear_1404_800" x1="0" y1="16.66" x2="33.01" y2="16.66" gradientUnits="userSpaceOnUse"><stop offset="0.21" stop-color="#005487"></stop><stop offset="1" stop-color="#0C7CC0"></stop></linearGradient><clipPath id="clip0_1404_800"><rect width="33.01" height="33.01" fill="white" transform="translate(0 0.164062)"></rect></clipPath></defs></svg> 